<?xml version="1.0" encoding="UTF-8" standalone="no"?>
<svg width="10px" height="10px" viewBox="0 0 10 10" version="1.1" xmlns="http://www.w3.org/2000/svg" xmlns:xlink="http://www.w3.org/1999/xlink">
    <!-- Generator: Sketch 48.2 (47327) - http://www.bohemiancoding.com/sketch -->
    <title>Artboard</title>
    <desc>Created with Sketch.</desc>
    <defs></defs>
    <g id="Page-1" stroke="none" stroke-width="1" fill="none" fill-rule="evenodd">
        <g id="Artboard" fill="#999999">
            <path d="M8.88888889,8.88888889 L1.11111111,8.88888889 L1.11111111,1.11111111 L5,1.11111111 L5,0 L1.11111111,0 C0.494444444,0 0,0.5 0,1.11111111 L0,8.88888889 C0,9.5 0.494444444,10 1.11111111,10 L8.88888889,10 C9.5,10 10,9.5 10,8.88888889 L10,5 L8.88888889,5 L8.88888889,8.88888889 L8.88888889,8.88888889 Z M6.11111111,0 L6.11111111,1.11111111 L8.10555556,1.11111111 L2.64444444,6.57222222 L3.42777778,7.35555556 L8.88888889,1.89444444 L8.88888889,3.88888889 L10,3.88888889 L10,0 L6.11111111,0 L6.11111111,0 Z" id="Shape-Copy-16"></path>
        </g>
    </g>
</svg>