<?xml version="1.0" encoding="UTF-8" standalone="no"?>
<svg width="30px" height="30px" viewBox="0 0 30 30" version="1.1" xmlns="http://www.w3.org/2000/svg" xmlns:xlink="http://www.w3.org/1999/xlink">
    <!-- Generator: Sketch 48.2 (47327) - http://www.bohemiancoding.com/sketch -->
    <title>Artboard Copy 2</title>
    <desc>Created with Sketch.</desc>
    <defs></defs>
    <g id="Page-1" stroke="none" stroke-width="1" fill="none" fill-rule="evenodd">
        <g id="Artboard-Copy-2" fill="#202226">
            <g id="Group-Copy-2" transform="translate(0.000000, 5.000000)">
                <g id="Rectangle-8-+-MENU">
                    <path d="M0,1.3224313 C0,0.592072661 0.598412376,0 1.32589059,0 L28.6316072,0 C29.3638764,0 29.9574978,0.586980735 29.9574978,1.3224313 C29.9574978,2.05278994 29.3590854,2.6448626 28.6316072,2.6448626 L1.32589059,2.6448626 C0.593621436,2.6448626 0,2.05788187 0,1.3224313 Z M0,9.89385987 C0,9.16350123 0.598412376,8.57142857 1.32589059,8.57142857 L28.6316072,8.57142857 C29.3638764,8.57142857 29.9574978,9.15840931 29.9574978,9.89385987 C29.9574978,10.6242185 29.3590854,11.2162912 28.6316072,11.2162912 L1.32589059,11.2162912 C0.593621436,11.2162912 0,10.6293104 0,9.89385987 Z M0,18.4652884 C0,17.7349298 0.598412376,17.1428571 1.32589059,17.1428571 L28.6316072,17.1428571 C29.3638764,17.1428571 29.9574978,17.7298379 29.9574978,18.4652884 C29.9574978,19.1956471 29.3590854,19.7877197 28.6316072,19.7877197 L1.32589059,19.7877197 C0.593621436,19.7877197 0,19.200739 0,18.4652884 Z" id="Rectangle-8"></path>
                </g>
            </g>
        </g>
    </g>
</svg>