<?xml version="1.0" encoding="UTF-8"?>
<svg width="34px" height="20px" viewBox="0 0 34 20" version="1.1" xmlns="http://www.w3.org/2000/svg" xmlns:xlink="http://www.w3.org/1999/xlink">
    <!-- Generator: sketchtool 59.1 (101010) - https://sketch.com -->
    <title>8EC6867A-1F31-4CAF-9012-F6005B64F9CB</title>
    <desc>Created with sketchtool.</desc>
    <defs>
        <path d="M3.1077798,0.53 C2.71997366,0.53 2.40546421,0.85 2.40546421,1.24533333 L2.40546421,1.24533333 C2.40546421,2.20266667 1.6411796,2.98133333 0.701649255,2.98133333 L0.701649255,2.98133333 C0.313843114,2.98133333 0,3.30066667 0,3.69666667 L0,3.69666667 L0,4.08933333 C0,4.24866667 0.0513076853,4.39666667 0.137264717,4.51466667 L0.137264717,4.51466667 C0.0513076853,4.634 0,4.78133333 0,4.94066667 L0,4.94066667 L0,5.35333333 C0,5.51266667 0.0513076853,5.66 0.137264717,5.77933333 L0.137264717,5.77933333 C0.0513076853,5.898 0,6.04466667 0,6.20466667 L0,6.20466667 L0,6.61666667 C0,6.776 0.0513076853,6.924 0.137264717,7.04333333 L0.137264717,7.04333333 C0.0513076853,7.16133333 0,7.30866667 0,7.468 L0,7.468 L0,7.88 C0,8.04 0.0513076853,8.18733333 0.137264717,8.306 L0.137264717,8.306 C0.0513076853,8.42466667 0,8.572 0,8.73133333 L0,8.73133333 L0,9.14466667 C0,9.304 0.0513076853,9.45066667 0.137264717,9.57066667 L0.137264717,9.57066667 C0.0513076853,9.68866667 0,9.836 0,9.99533333 L0,9.99533333 L0,10.408 C0,10.5673333 0.0513076853,10.7146667 0.137264717,10.8333333 L0.137264717,10.8333333 C0.0513076853,10.952 0,11.1 0,11.2593333 L0,11.2593333 L0,11.6713333 C0,11.8306667 0.0513076853,11.9786667 0.137264717,12.0973333 L0.137264717,12.0973333 C0.0513076853,12.2173333 0,12.3633333 0,12.5233333 L0,12.5233333 L0,12.936 C0,13.0946667 0.0513076853,13.2426667 0.137264717,13.3613333 L0.137264717,13.3613333 C0.0513076853,13.48 0,13.6273333 0,13.7866667 L0,13.7866667 L0,14.1993333 C0,14.3586667 0.0513076853,14.5066667 0.137264717,14.6246667 L0.137264717,14.6246667 C0.0513076853,14.744 0,14.8913333 0,15.0506667 L0,15.0506667 L0,15.4633333 C0,15.6226667 0.0513076853,15.7693333 0.137264717,15.888 L0.137264717,15.888 C0.0513076853,16.0073333 0,16.1546667 0,16.3146667 L0,16.3146667 L0,16.6973333 C0,17.0926667 0.313843114,17.4133333 0.701649255,17.4133333 L0.701649255,17.4133333 C1.6411796,17.4133333 2.40546421,18.1913333 2.40546421,19.148 L2.40546421,19.148 C2.40546421,19.5433333 2.71997366,19.864 3.1077798,19.864 L3.1077798,19.864 L30.208899,19.864 C30.5967051,19.864 30.9105482,19.5433333 30.9105482,19.148 L30.9105482,19.148 C30.9105482,18.1913333 31.6748328,17.4133333 32.6150295,17.4133333 L32.6150295,17.4133333 C33.0021693,17.4133333 33.3166788,17.0926667 33.3166788,16.6973333 L33.3166788,16.6973333 L33.3166788,16.3146667 C33.3166788,16.1546667 33.2653711,16.0073333 33.1787477,15.888 L33.1787477,15.888 C33.2653711,15.7693333 33.3166788,15.6226667 33.3166788,15.4633333 L33.3166788,15.4633333 L33.3166788,15.0506667 C33.3166788,14.8966667 33.2680364,14.7473333 33.1787477,14.6246667 L33.1787477,14.6246667 C33.2653711,14.5066667 33.3166788,14.3586667 33.3166788,14.1993333 L33.3166788,14.1993333 L33.3166788,13.7873333 C33.3166788,13.6326667 33.2680364,13.4833333 33.1787477,13.3613333 L33.1787477,13.3613333 C33.2653711,13.2426667 33.3166788,13.0946667 33.3166788,12.936 L33.3166788,12.936 L33.3166788,12.5233333 C33.3166788,12.3693333 33.2680364,12.22 33.1787477,12.0973333 L33.1787477,12.0973333 C33.2653711,11.9786667 33.3166788,11.8306667 33.3166788,11.6713333 L33.3166788,11.6713333 L33.3166788,11.2593333 C33.3166788,11.1053333 33.2680364,10.9566667 33.1787477,10.8333333 L33.1787477,10.8333333 C33.2653711,10.7146667 33.3166788,10.5673333 33.3166788,10.408 L33.3166788,10.408 L33.3166788,9.996 C33.3166788,9.84133333 33.2680364,9.69266667 33.1787477,9.57 L33.1787477,9.57 C33.2653711,9.45066667 33.3166788,9.304 33.3166788,9.14466667 L33.3166788,9.14466667 L33.3166788,8.73133333 C33.3166788,8.578 33.2680364,8.42866667 33.1787477,8.306 L33.1787477,8.306 C33.2653711,8.18733333 33.3166788,8.04 33.3166788,7.88066667 L33.3166788,7.88066667 L33.3166788,7.46866667 C33.3166788,7.314 33.2680364,7.16466667 33.1787477,7.04333333 L33.1787477,7.04333333 C33.2653711,6.924 33.3166788,6.776 33.3166788,6.61666667 L33.3166788,6.61666667 L33.3166788,6.20466667 C33.3166788,6.05 33.2680364,5.90066667 33.1787477,5.77933333 L33.1787477,5.77933333 C33.2653711,5.66 33.3166788,5.51266667 33.3166788,5.35333333 L33.3166788,5.35333333 L33.3166788,4.94066667 C33.3166788,4.78666667 33.2680364,4.63733333 33.1787477,4.51466667 L33.1787477,4.51466667 C33.2653711,4.39666667 33.3166788,4.24866667 33.3166788,4.08933333 L33.3166788,4.08933333 L33.3166788,3.69666667 C33.3166788,3.50666667 33.2427158,3.32533333 33.111448,3.19066667 L33.111448,3.19066667 C32.979514,3.05666667 32.8016029,2.98133333 32.6150295,2.98133333 L32.6150295,2.98133333 C31.6748328,2.98133333 30.9105482,2.20266667 30.9105482,1.24533333 L30.9105482,1.24533333 C30.9105482,0.85 30.5967051,0.53 30.208899,0.53 L30.208899,0.53 L3.1077798,0.53 Z M0.702315589,16.6973333 L0.702315589,16.3146667 C0.926870004,16.3146667 1.1094454,16.1286667 1.1094454,15.8986667 L1.1094454,15.8986667 L1.1094454,15.858 C1.1094454,15.6293333 0.926870004,15.4633333 0.702315589,15.4633333 L0.702315589,15.4633333 L0.702315589,15.0506667 C0.926870004,15.0506667 1.1094454,14.8653333 1.1094454,14.6346667 L1.1094454,14.6346667 L1.1094454,14.594 C1.1094454,14.3646667 0.926870004,14.1993333 0.702315589,14.1993333 L0.702315589,14.1993333 L0.702315589,13.7866667 C0.926870004,13.7866667 1.1094454,13.6013333 1.1094454,13.3706667 L1.1094454,13.3706667 L1.1094454,13.3306667 C1.1094454,13.1006667 0.926870004,12.936 0.702315589,12.936 L0.702315589,12.936 L0.702315589,12.5233333 C0.926870004,12.5233333 1.1094454,12.3366667 1.1094454,12.108 L1.1094454,12.108 L1.1094454,12.0666667 C1.1094454,11.8373333 0.926870004,11.6713333 0.702315589,11.6713333 L0.702315589,11.6713333 L0.702315589,11.2593333 C0.926870004,11.2593333 1.1094454,11.0733333 1.1094454,10.8433333 L1.1094454,10.8433333 L1.1094454,10.8033333 C1.1094454,10.5733333 0.926870004,10.408 0.702315589,10.408 L0.702315589,10.408 L0.702315589,9.99533333 C0.926870004,9.99533333 1.1094454,9.81 1.1094454,9.58 L1.1094454,9.58 L1.1094454,9.53933333 C1.1094454,9.31 0.926870004,9.14466667 0.702315589,9.14466667 L0.702315589,9.14466667 L0.702315589,8.73133333 C0.926870004,8.73133333 1.1094454,8.546 1.1094454,8.31666667 L1.1094454,8.31666667 L1.1094454,8.276 C1.1094454,8.04666667 0.926870004,7.88066667 0.702315589,7.88 L0.702315589,7.88 L0.702315589,7.468 C0.926870004,7.468 1.1094454,7.28266667 1.1094454,7.05266667 L1.1094454,7.05266667 L1.1094454,7.012 C1.1094454,6.78266667 0.926870004,6.61666667 0.702315589,6.61666667 L0.702315589,6.61666667 L0.702315589,6.20466667 C0.926870004,6.20466667 1.1094454,6.01933333 1.1094454,5.78933333 L1.1094454,5.78933333 L1.1094454,5.748 C1.1094454,5.51866667 0.926870004,5.35333333 0.702315589,5.35333333 L0.702315589,5.35333333 L0.702315589,4.94066667 C0.926870004,4.94066667 1.1094454,4.75466667 1.1094454,4.52533333 L1.1094454,4.52533333 L1.1094454,4.484 C1.1094454,4.25466667 0.926870004,4.08933333 0.702315589,4.08933333 L0.702315589,4.08933333 L0.702315589,3.69666667 C2.02898574,3.69666667 3.1077798,2.59666667 3.1077798,1.24533333 L3.1077798,1.24533333 L30.208899,1.24533333 C30.208899,2.59666667 31.2883594,3.69666667 32.6150295,3.69666667 L32.6150295,3.69666667 L32.6150295,4.08933333 C32.3891424,4.08933333 32.2072334,4.29666667 32.2072334,4.52533333 L32.2072334,4.52533333 C32.2072334,4.75466667 32.3891424,4.94066667 32.6150295,4.94066667 L32.6150295,4.94066667 L32.6150295,5.35333333 C32.3891424,5.35333333 32.2072334,5.56 32.2072334,5.78933333 L32.2072334,5.78933333 C32.2072334,6.01933333 32.3891424,6.20466667 32.6150295,6.20466667 L32.6150295,6.20466667 L32.6150295,6.61666667 C32.3891424,6.61666667 32.2072334,6.82333333 32.2072334,7.05266667 L32.2072334,7.05266667 C32.2072334,7.28266667 32.3891424,7.468 32.6150295,7.468 L32.6150295,7.468 L32.6150295,7.88 C32.3891424,7.88 32.2072334,8.08666667 32.2072334,8.31666667 L32.2072334,8.31666667 C32.2072334,8.546 32.3891424,8.73133333 32.6150295,8.73133333 L32.6150295,8.73133333 L32.6150295,9.14466667 C32.3891424,9.14466667 32.2072334,9.35 32.2072334,9.58 L32.2072334,9.58 C32.2072334,9.81 32.3891424,9.99533333 32.6150295,9.99533333 L32.6150295,9.99533333 L32.6150295,10.408 C32.3891424,10.408 32.2072334,10.614 32.2072334,10.8433333 L32.2072334,10.8433333 C32.2072334,11.0733333 32.3891424,11.2593333 32.6150295,11.2593333 L32.6150295,11.2593333 L32.6150295,11.6713333 C32.3891424,11.6713333 32.2072334,11.878 32.2072334,12.108 L32.2072334,12.108 C32.2072334,12.3366667 32.3891424,12.5233333 32.6150295,12.5233333 L32.6150295,12.5233333 L32.6150295,12.936 C32.3891424,12.936 32.2072334,13.1413333 32.2072334,13.3706667 L32.2072334,13.3706667 C32.2072334,13.6013333 32.3891424,13.7873333 32.6150295,13.7873333 L32.6150295,13.7873333 L32.6150295,14.1993333 C32.3891424,14.1993333 32.2072334,14.406 32.2072334,14.6346667 L32.2072334,14.6346667 C32.2072334,14.8653333 32.3891424,15.0506667 32.6150295,15.0506667 L32.6150295,15.0506667 L32.6150295,15.4633333 C32.3891424,15.4633333 32.2072334,15.6693333 32.2072334,15.8986667 L32.2072334,15.8986667 C32.2072334,16.1286667 32.3891424,16.3146667 32.6150295,16.3146667 L32.6150295,16.3146667 L32.6150295,16.6973333 C31.2883594,16.6973333 30.208899,17.7966667 30.208899,19.148 L30.208899,19.148 L3.1077798,19.148 C3.1077798,17.7966667 2.02898574,16.6973333 0.702315589,16.6973333 L0.702315589,16.6973333 Z" id="path-1"></path>
        <path d="M0.839580305,0.294666667 C0.712310592,0.420666667 0.648342569,0.595333333 0.648342569,0.811333333 L0.648342569,0.811333333 C0.648342569,1.02933333 0.712310592,1.20533333 0.839580305,1.33333333 L0.839580305,1.33333333 C0.962852017,1.45933333 1.13210074,1.522 1.34199582,1.522 L1.34199582,1.522 C1.55122456,1.522 1.72047329,1.45933333 1.843745,1.33333333 L1.843745,1.33333333 C1.97168105,1.20533333 2.03631541,1.02933333 2.03631541,0.811333333 L2.03631541,0.811333333 C2.03631541,0.595333333 1.97168105,0.421333333 1.84507767,0.294666667 L1.84507767,0.294666667 C1.72180596,0.17 1.55255723,0.107333333 1.34199582,0.107333333 L1.34199582,0.107333333 C1.13210074,0.107333333 0.962852017,0.17 0.839580305,0.294666667 L0.839580305,0.294666667 Z M1.04081305,0.994 C0.976178688,0.948666667 0.94486101,0.889333333 0.94486101,0.813333333 L0.94486101,0.813333333 C0.94486101,0.738666667 0.976178688,0.68 1.04014671,0.634666667 L1.04014671,0.634666667 C1.11211074,0.585333333 1.21405977,0.56 1.34399482,0.56 L1.34399482,0.56 C1.4725972,0.56 1.57321357,0.585333333 1.64384493,0.635333333 L1.64384493,0.635333333 C1.70847929,0.680666667 1.73979697,0.74 1.73979697,0.813333333 L1.73979697,0.813333333 C1.73979697,0.89 1.70847929,0.948666667 1.64384493,0.994 L1.64384493,0.994 C1.57321357,1.04466667 1.4725972,1.07 1.34399482,1.07 L1.34399482,1.07 C1.21405977,1.07 1.11211074,1.04466667 1.04081305,0.994 L1.04081305,0.994 Z" id="path-3"></path>
        <path d="M0.681659248,0.232 C0.659003906,0.259333333 0.648342569,0.300666667 0.648342569,0.357333333 L0.648342569,0.357333333 L0.648342569,0.963333333 C0.648342569,1.02066667 0.659003906,1.062 0.681659248,1.08933333 L0.681659248,1.08933333 C0.70631359,1.11733333 0.74362827,1.132 0.792270621,1.132 L0.792270621,1.132 C0.84224564,1.132 0.87956032,1.11733333 0.904880996,1.08666667 L0.904880996,1.08666667 C0.927536337,1.05933333 0.938197674,1.01866667 0.938197674,0.963333333 L0.938197674,0.963333333 L0.938197674,0.835333333 L1.90104969,0.835333333 C1.94502771,0.835333333 1.97701172,0.827333333 1.99966706,0.809333333 L1.99966706,0.809333333 C2.02365507,0.790666667 2.03631541,0.760666667 2.03631541,0.721333333 L2.03631541,0.721333333 C2.03631541,0.708 2.03431641,0.694 2.03098474,0.678666667 L2.03098474,0.678666667 C2.02765307,0.665333333 2.02498774,0.647333333 2.0183244,0.624666667 L2.0183244,0.624666667 L1.94969204,0.370666667 C1.9390307,0.328 1.92370503,0.296 1.90238236,0.274 L1.90238236,0.274 C1.87972702,0.249333333 1.84974201,0.236666667 1.81642533,0.236666667 L1.81642533,0.236666667 C1.77511265,0.236666667 1.74112963,0.248 1.71647529,0.27 L1.71647529,0.27 C1.69048828,0.292666667 1.67716161,0.324666667 1.67716161,0.363333333 L1.67716161,0.363333333 C1.67716161,0.370666667 1.67849428,0.381333333 1.68115961,0.395333333 L1.68115961,0.395333333 C1.68249228,0.407333333 1.68582395,0.420666667 1.69048828,0.443333333 L1.69048828,0.443333333 L1.70781295,0.510666667 L0.938197674,0.510666667 L0.938197674,0.357333333 C0.938197674,0.301333333 0.927536337,0.26 0.904214662,0.232 L0.904214662,0.232 C0.87956032,0.203333333 0.841579306,0.188666667 0.792270621,0.188666667 L0.792270621,0.188666667 C0.744294604,0.188666667 0.706979924,0.203333333 0.681659248,0.232 L0.681659248,0.232 Z" id="path-5"></path>
        <path d="M0.680992914,0.314 C0.659003906,0.340666667 0.648342569,0.377333333 0.648342569,0.422 L0.648342569,0.422 L0.648342569,1.11333333 C0.648342569,1.144 0.655005905,1.166 0.670331577,1.18133333 L0.670331577,1.18133333 C0.686323583,1.196 0.712310592,1.204 0.754955941,1.206 L0.754955941,1.206 L0.913543332,1.21333333 L0.926870004,1.21333333 C0.967516352,1.21333333 1.0001667,1.202 1.02415471,1.18 L1.02415471,1.18 C1.04814271,1.15733333 1.06013672,1.12733333 1.06013672,1.09 L1.06013672,1.09 C1.06013672,1.04533333 1.04814271,1.01133333 1.02482104,0.988 L1.02482104,0.988 C1.00683003,0.968666667 0.982842024,0.957333333 0.950858012,0.952 L0.950858012,0.952 L0.950858012,0.744 L1.15142442,0.962666667 C1.22472111,1.044 1.30068314,1.104 1.3753125,1.142 L1.3753125,1.142 C1.45260719,1.182 1.53323356,1.202 1.61652525,1.202 L1.61652525,1.202 C1.74312863,1.202 1.84641034,1.162 1.9230387,1.084 L1.9230387,1.084 C1.99833439,1.00666667 2.03631541,0.901333333 2.03631541,0.771333333 L2.03631541,0.771333333 C2.03631541,0.704 2.02698674,0.64 2.00899573,0.581333333 L2.00899573,0.581333333 C1.99233739,0.524 1.96435138,0.468 1.92637037,0.413333333 L1.92637037,0.413333333 C1.89971702,0.376666667 1.87239735,0.353333333 1.84441134,0.34 L1.84441134,0.34 C1.81642533,0.326666667 1.77777798,0.320666667 1.72713663,0.320666667 L1.72713663,0.320666667 C1.67382994,0.320666667 1.63318359,0.331333333 1.60453125,0.353333333 L1.60453125,0.353333333 C1.5718809,0.376 1.55655523,0.409333333 1.55655523,0.454 L1.55655523,0.454 C1.55655523,0.503333333 1.58920558,0.548 1.65450627,0.586 L1.65450627,0.586 C1.67116461,0.595333333 1.68315861,0.603333333 1.69315362,0.611333333 L1.69315362,0.611333333 C1.70648029,0.621333333 1.71714162,0.636 1.72513763,0.656 L1.72513763,0.656 C1.7344663,0.677333333 1.73913063,0.702666667 1.73913063,0.732 L1.73913063,0.732 C1.73913063,0.778666667 1.72780296,0.813333333 1.70514762,0.834 L1.70514762,0.834 C1.66716661,0.87 1.5718809,0.881333333 1.48192587,0.838666667 L1.48192587,0.838666667 C1.44394486,0.82 1.40329851,0.79 1.36265216,0.750666667 L1.36265216,0.750666667 L0.964184684,0.36 C0.932867006,0.33 0.904880996,0.307333333 0.876228652,0.293333333 L0.876228652,0.293333333 C0.845577307,0.278 0.813593296,0.27 0.783608285,0.27 L0.783608285,0.27 C0.742961937,0.27 0.705647257,0.284666667 0.680992914,0.314 L0.680992914,0.314 Z" id="path-7"></path>
        <path d="M0.709645258,0.485333333 C0.668332576,0.566 0.648342569,0.668666667 0.648342569,0.790666667 L0.648342569,0.790666667 C0.648342569,0.942666667 0.68765625,1.06666667 0.764950945,1.156 L0.764950945,1.156 C0.844910974,1.248 0.95219068,1.294 1.08612373,1.294 L1.08612373,1.294 C1.17607876,1.294 1.24937545,1.27333333 1.30734648,1.232 L1.30734648,1.232 C1.34599382,1.204 1.37797783,1.16533333 1.40329851,1.118 L1.40329851,1.118 C1.42795285,1.156 1.45727153,1.18733333 1.48925554,1.21066667 L1.48925554,1.21066667 C1.53989689,1.246 1.60186592,1.264 1.67382994,1.264 L1.67382994,1.264 C1.78244231,1.264 1.87239735,1.22533333 1.93836437,1.14866667 L1.93836437,1.14866667 C2.00366506,1.07333333 2.03631541,0.972666667 2.03631541,0.849333333 L2.03631541,0.849333333 C2.03631541,0.729333333 2.0143264,0.626666667 1.97168105,0.544 L1.97168105,0.544 C1.9250377,0.453333333 1.86573401,0.406666667 1.79443632,0.406666667 L1.79443632,0.406666667 C1.75978697,0.406666667 1.72913563,0.418666667 1.70581395,0.439333333 L1.70581395,0.439333333 C1.68115961,0.462 1.66849927,0.492 1.66849927,0.529333333 L1.66849927,0.529333333 C1.66849927,0.547333333 1.67382994,0.582666667 1.71914063,0.670666667 L1.71914063,0.670666667 C1.74712664,0.726666667 1.76111964,0.776666667 1.76111964,0.82 L1.76111964,0.82 C1.76111964,0.856 1.75179097,0.882666667 1.73313363,0.9 L1.73313363,0.9 C1.71380996,0.919333333 1.68582395,0.928666667 1.6491756,0.928666667 L1.6491756,0.928666667 C1.60519758,0.928666667 1.57254724,0.920666667 1.5558889,0.905333333 L1.5558889,0.905333333 C1.5458939,0.897333333 1.52856922,0.871333333 1.51724155,0.789333333 L1.51724155,0.789333333 C1.51724155,0.785333333 1.51590888,0.780666667 1.51524255,0.772 L1.51524255,0.772 C1.50524755,0.696666667 1.45927053,0.654666667 1.38797284,0.654666667 L1.38797284,0.654666667 C1.33933049,0.654666667 1.30534747,0.664666667 1.28335847,0.686 L1.28335847,0.686 C1.26070313,0.707333333 1.24937545,0.743333333 1.24737645,0.795333333 L1.24737645,0.795333333 C1.24337845,0.882 1.22538745,0.917333333 1.21139444,0.932 L1.21139444,0.932 C1.18940543,0.952 1.15075809,0.964 1.09411973,0.964 L1.09411973,0.964 C1.04281205,0.964 1.00283203,0.95 0.977511355,0.923333333 L0.977511355,0.923333333 C0.950858012,0.897333333 0.937531341,0.859333333 0.937531341,0.806666667 L0.937531341,0.806666667 C0.937531341,0.760666667 0.951524346,0.706 0.978844023,0.643333333 L0.978844023,0.643333333 C1.02082304,0.546666667 1.02682004,0.518 1.02682004,0.502 L1.02682004,0.502 C1.02682004,0.458666667 1.01349337,0.422 0.986173692,0.394 L0.986173692,0.394 C0.959520349,0.365333333 0.924204669,0.352 0.88155932,0.352 L0.88155932,0.352 C0.811594295,0.352 0.753623274,0.396666667 0.709645258,0.485333333 L0.709645258,0.485333333 Z" id="path-9"></path>
        <path d="M1.06879906,0.237333333 C1.03948038,0.237333333 1.0161587,0.245107185 0.997501363,0.259948174 L0.997501363,0.259948174 C0.984174691,0.270548881 0.967516352,0.292457008 0.967516352,0.327085984 L0.967516352,0.327085984 L0.967516352,0.751114252 L0.916208666,0.751114252 L0.916208666,0.64228033 C0.916208666,0.588570082 0.906879996,0.550407538 0.885557322,0.522845701 L0.885557322,0.522845701 C0.862235647,0.49457715 0.827586301,0.480442874 0.780942951,0.480442874 L0.780942951,0.480442874 C0.734965934,0.480442874 0.700316588,0.49457715 0.67832758,0.522845701 L0.67832758,0.522845701 C0.657671239,0.548994111 0.648342569,0.587863369 0.648342569,0.64228033 L0.648342569,0.64228033 L0.648342569,1.06348174 C0.648342569,1.11860542 0.657671239,1.15676796 0.677661246,1.18362309 L0.677661246,1.18362309 C0.699650254,1.21259835 0.734965934,1.22743934 0.780942951,1.22743934 L0.780942951,1.22743934 C0.818257631,1.22743934 0.85157431,1.21542521 0.874895985,1.19281037 L0.874895985,1.19281037 C0.900882994,1.16948881 0.914209666,1.13910012 0.914209666,1.097404 L0.914209666,1.097404 L0.914875999,1.08256302 C0.916208666,1.07549588 0.916208666,1.06913545 0.916208666,1.06348174 L0.916208666,1.06348174 L0.916208666,1.04157362 L0.967516352,1.04157362 L0.967516352,1.11577856 C0.967516352,1.13768669 0.974179688,1.15676796 0.985507358,1.17443581 L0.985507358,1.17443581 C0.997501363,1.19069022 1.01482604,1.20270436 1.03681504,1.20835807 L1.03681504,1.20835807 L1.11011174,1.22885277 C1.11877407,1.23238634 1.12743641,1.23379976 1.13809775,1.23521319 L1.13809775,1.23521319 C1.14676008,1.23662662 1.15608875,1.23733333 1.16408476,1.23733333 L1.16408476,1.23733333 C1.21139444,1.23733333 1.23804778,1.21683863 1.25204079,1.20058422 L1.25204079,1.20058422 C1.2720308,1.17726266 1.28135947,1.14687397 1.28135947,1.11012485 L1.28135947,1.11012485 C1.28135947,1.08821673 1.2700318,1.06489517 1.24604379,1.04157362 L1.24604379,1.04157362 L1.9130437,1.04157362 C1.93569904,1.04157362 1.95435638,1.03733333 1.96768305,1.02814605 L1.96768305,1.02814605 C1.98567406,1.01683863 1.99766806,0.999877503 2.00233239,0.980796231 L2.00233239,0.980796231 L2.03365007,0.799170789 L2.03564907,0.787156655 C2.03631541,0.782209658 2.03631541,0.776555948 2.03631541,0.76948881 L2.03631541,0.76948881 C2.03631541,0.749700824 2.03165107,0.733446408 2.02498774,0.723552415 L2.02498774,0.723552415 C2.0163254,0.712244994 2.0043314,0.700937574 1.97967705,0.686096584 L1.97967705,0.686096584 L1.25270712,0.266308598 C1.23404978,0.255707892 1.21605878,0.248640754 1.19940044,0.244400471 L1.19940044,0.244400471 C1.18207576,0.239453475 1.15942042,0.237333333 1.13076808,0.237333333 L1.13076808,0.237333333 L1.06879906,0.237333333 Z M1.23138445,0.53768669 L1.61385992,0.751114252 L1.23138445,0.751114252 L1.23138445,0.53768669 Z" id="path-11"></path>
        <path d="M0.692320585,0.628 C0.662335574,0.694666667 0.648342569,0.788 0.648342569,0.912666667 L0.648342569,0.912666667 C0.648342569,1.086 0.689655251,1.22133333 0.772946948,1.31466667 L0.772946948,1.31466667 C0.856904978,1.40933333 0.979510356,1.45733333 1.13876408,1.45733333 L1.13876408,1.45733333 C1.2780278,1.45733333 1.39263717,1.418 1.47992687,1.34066667 L1.47992687,1.34066667 C1.56721657,1.26333333 1.61252725,1.16066667 1.61252725,1.03666667 L1.61252725,1.03666667 C1.61252725,1.00333333 1.60852925,0.97 1.60186592,0.935333333 L1.60186592,0.935333333 C1.59853425,0.913333333 1.59320358,0.889333333 1.58654024,0.864 L1.58654024,0.864 L1.73379996,0.864 L1.73379996,1.28533333 C1.73379996,1.336 1.74512763,1.37066667 1.76911564,1.39333333 L1.76911564,1.39333333 C1.79243732,1.416 1.829752,1.42733333 1.88372502,1.42733333 L1.88372502,1.42733333 C1.93836437,1.42733333 1.97567905,1.41666667 2.00033339,1.39333333 L2.00033339,1.39333333 C2.0243214,1.37066667 2.03631541,1.33533333 2.03631541,1.28533333 L2.03631541,1.28533333 L2.03631541,0.658 C2.03631541,0.624666667 2.02765307,0.601333333 2.01166106,0.587333333 L2.01166106,0.587333333 C1.99433639,0.569333333 1.96501771,0.561333333 1.9150427,0.561333333 L1.9150427,0.561333333 L1.42462118,0.561333333 C1.36465116,0.561333333 1.32133948,0.571333333 1.29268714,0.590666667 L1.29268714,0.590666667 C1.26203579,0.613333333 1.24604379,0.649333333 1.24604379,0.697333333 L1.24604379,0.697333333 C1.24604379,0.715333333 1.25070812,0.746 1.29135447,0.827333333 L1.29135447,0.827333333 C1.31600881,0.878666667 1.32933548,0.922666667 1.32933548,0.957333333 L1.32933548,0.957333333 C1.32933548,1.01266667 1.31267714,1.05333333 1.2780278,1.084 L1.2780278,1.084 C1.24337845,1.11533333 1.19740144,1.13 1.13609875,1.13 L1.13609875,1.13 C1.07412972,1.13 1.02881904,1.11466667 0.996168695,1.082 L0.996168695,1.082 C0.96351835,1.04933333 0.947526344,1.00133333 0.947526344,0.938666667 L0.947526344,0.938666667 C0.947526344,0.898 0.956188681,0.847333333 0.974179688,0.79 L0.974179688,0.79 C1.0021657,0.703333333 1.00549737,0.674 1.00549737,0.66 L1.00549737,0.66 C1.00549737,0.62 0.990171693,0.584666667 0.960186682,0.557333333 L0.960186682,0.557333333 C0.929535338,0.528 0.891554324,0.514 0.849575309,0.514 L0.849575309,0.514 C0.801599291,0.514 0.7342996,0.534 0.692320585,0.628 L0.692320585,0.628 Z" id="path-13"></path>
        <path d="M0.815592297,0.728235571 C0.703648256,0.817988221 0.648342569,0.942369847 0.648342569,1.09714016 L0.648342569,1.09714016 C0.648342569,1.24555006 0.690321584,1.36639812 0.774945948,1.45685748 L0.774945948,1.45685748 C0.858237645,1.54873027 0.97084802,1.59466667 1.1074464,1.59466667 L1.1074464,1.59466667 C1.23604878,1.59466667 1.34532749,1.55438398 1.43328352,1.47240518 L1.43328352,1.47240518 C1.52190589,1.3911331 1.56655024,1.2886596 1.56655024,1.16922497 L1.56655024,1.16922497 C1.56655024,1.11198115 1.5558889,1.05756419 1.53456622,1.0066808 L1.53456622,1.0066808 C1.52923556,0.994666667 1.52323855,0.982652532 1.51657522,0.969931684 L1.51657522,0.969931684 C1.58587391,0.99537338 1.6411796,1.02788221 1.68115961,1.06604476 L1.68115961,1.06604476 C1.73979697,1.12258186 1.77377998,1.20032038 1.78377498,1.29643345 L1.78377498,1.29643345 C1.78644032,1.32046172 1.78910565,1.35085041 1.79243732,1.38971967 L1.79243732,1.38971967 C1.80043332,1.54731684 1.87972702,1.56922497 1.92637037,1.56922497 L1.92637037,1.56922497 C1.95035838,1.56922497 1.99433639,1.56074441 2.01565907,1.49926031 L2.01565907,1.49926031 C2.02965207,1.46463133 2.03631541,1.41092108 2.03631541,1.33388928 L2.03631541,1.33388928 C2.03631541,1.11268787 1.96368505,0.932475854 1.82108966,0.797493522 L1.82108966,0.797493522 C1.67982694,0.663924617 1.49125454,0.594666667 1.26003679,0.594666667 L1.26003679,0.594666667 C1.07346339,0.594666667 0.923538336,0.639896349 0.815592297,0.728235571 L0.815592297,0.728235571 Z M0.960853016,1.21728151 C0.930201672,1.19042638 0.914209666,1.15438398 0.914209666,1.11127444 L0.914209666,1.11127444 C0.914209666,1.06251119 0.930868005,1.02293522 0.964851017,0.991839812 L0.964851017,0.991839812 C1.0001667,0.959330978 1.04481105,0.944489988 1.10078307,0.944489988 L1.10078307,0.944489988 C1.15342342,0.944489988 1.1947361,0.958624264 1.22805278,0.98971967 L1.22805278,0.98971967 C1.26003679,1.02081508 1.2760288,1.05685748 1.2760288,1.10208716 L1.2760288,1.10208716 C1.2760288,1.14802356 1.25937046,1.1861861 1.22605378,1.21516137 L1.22605378,1.21516137 C1.19207077,1.24555006 1.14676008,1.26039105 1.0914544,1.26039105 L1.0914544,1.26039105 C1.03614871,1.26039105 0.993503361,1.24696349 0.960853016,1.21728151 L0.960853016,1.21728151 Z" id="path-15"></path>
        <path d="M1.66650027,0.0413333333 C1.6451776,0.0626666667 1.63518259,0.0926666667 1.63518259,0.131333333 L1.63518259,0.131333333 C1.63518259,0.164 1.6451776,0.193333333 1.66583394,0.218666667 L1.66583394,0.218666667 C1.68249228,0.239333333 1.70448129,0.254 1.72980196,0.260666667 L1.72980196,0.260666667 L1.72980196,0.616 L0.764284611,0.268666667 C0.756954942,0.265333333 0.750291606,0.263333333 0.74162927,0.262666667 L0.74162927,0.262666667 C0.728968932,0.262 0.698983921,0.248666667 0.666333576,0.285333333 L0.666333576,0.285333333 C0.654339571,0.298666667 0.648342569,0.316 0.648342569,0.334 L0.648342569,0.334 L0.648342569,0.523333333 C0.648342569,0.548666667 0.653673238,0.568666667 0.665000908,0.584666667 L0.665000908,0.584666667 C0.676994913,0.600666667 0.695652253,0.612666667 0.721639262,0.62 L0.721639262,0.62 L1.87772802,0.952 L1.94436137,0.952666667 C1.97368005,0.952666667 1.99633539,0.945333333 2.01299373,0.928666667 L2.01299373,0.928666667 C2.02765307,0.912 2.03631541,0.889333333 2.03631541,0.860666667 L2.03631541,0.860666667 L2.03631541,0.138 C2.03631541,0.109333333 2.02765307,0.0853333333 2.01166106,0.064 L2.01166106,0.064 C1.99500273,0.046 1.97168105,0.034 1.94302871,0.0306666667 L1.94302871,0.0306666667 L1.78377498,0.012 L1.76978198,0.0106666667 C1.76311864,0.0106666667 1.75778797,0.01 1.75378997,0.01 L1.75378997,0.01 C1.71647529,0.01 1.68582395,0.0213333333 1.66650027,0.0413333333 L1.66650027,0.0413333333 Z" id="path-17"></path>
        <path d="M0.820922965,0.294666667 C0.694319586,0.420666667 0.629018895,0.595333333 0.629018895,0.811333333 L0.629018895,0.811333333 C0.629018895,1.02933333 0.694319586,1.20533333 0.820922965,1.33333333 L0.820922965,1.33333333 C0.94486101,1.45933333 1.11410974,1.522 1.32400481,1.522 L1.32400481,1.522 C1.53256722,1.522 1.70181595,1.45933333 1.825754,1.33333333 L1.825754,1.33333333 C1.95302371,1.20533333 2.01765807,1.02933333 2.01765807,0.811333333 L2.01765807,0.811333333 C2.01765807,0.595333333 1.95369004,0.421333333 1.82642033,0.294666667 L1.82642033,0.294666667 C1.70248229,0.17 1.53389989,0.107333333 1.32400481,0.107333333 L1.32400481,0.107333333 C1.11410974,0.107333333 0.94486101,0.17 0.820922965,0.294666667 L0.820922965,0.294666667 Z M1.0221557,0.994 C0.958187682,0.948666667 0.926870004,0.889333333 0.926870004,0.813333333 L0.926870004,0.813333333 C0.926870004,0.738666667 0.958187682,0.68 1.0221557,0.634666667 L1.0221557,0.634666667 C1.0934534,0.585333333 1.19540243,0.56 1.32533748,0.56 L1.32533748,0.56 C1.4546062,0.56 1.55455623,0.585333333 1.62585392,0.635333333 L1.62585392,0.635333333 C1.68982195,0.680666667 1.72113963,0.74 1.72113963,0.813333333 L1.72113963,0.813333333 C1.72113963,0.89 1.68982195,0.948666667 1.62585392,0.994 L1.62585392,0.994 C1.55455623,1.04466667 1.45393986,1.07 1.32533748,1.07 L1.32533748,1.07 C1.19540243,1.07 1.0934534,1.04466667 1.0221557,0.994 L1.0221557,0.994 Z" id="path-19"></path>
        <path d="M0.663668241,0.232 C0.640346566,0.259333333 0.629018895,0.300666667 0.629018895,0.357333333 L0.629018895,0.357333333 L0.629018895,0.963333333 C0.629018895,1.02066667 0.640346566,1.062 0.663668241,1.08933333 L0.663668241,1.08933333 C0.68765625,1.11733333 0.72497093,1.132 0.773613281,1.132 L0.773613281,1.132 C0.823588299,1.132 0.862235647,1.11733333 0.886223656,1.08666667 L0.886223656,1.08666667 C0.908878997,1.05933333 0.919540334,1.01866667 0.919540334,0.963333333 L0.919540334,0.963333333 L0.919540334,0.835333333 L1.88239235,0.835333333 C1.92637037,0.835333333 1.95835438,0.827333333 1.98034339,0.809333333 L1.98034339,0.809333333 C1.99700173,0.796 2.01765807,0.77 2.01765807,0.721333333 L2.01765807,0.721333333 C2.01765807,0.708666667 2.01565907,0.694 2.0123274,0.678666667 L2.0123274,0.678666667 C2.00899573,0.665333333 2.00566406,0.647333333 2.00033339,0.624666667 L2.00033339,0.624666667 L1.93036837,0.371333333 C1.92037336,0.328 1.90571403,0.296666667 1.88439135,0.274666667 L1.88439135,0.274666667 C1.86106968,0.25 1.83108467,0.236666667 1.79776799,0.236666667 L1.79776799,0.236666667 C1.75645531,0.236666667 1.72247229,0.248 1.69715162,0.27 L1.69715162,0.27 C1.67183094,0.292666667 1.65850427,0.324666667 1.65850427,0.363333333 L1.65850427,0.363333333 C1.65850427,0.370666667 1.65983694,0.380666667 1.66250227,0.395333333 L1.66250227,0.395333333 C1.66383494,0.407333333 1.66650027,0.420666667 1.67183094,0.443333333 L1.67183094,0.443333333 L1.68915561,0.510666667 L0.919540334,0.510666667 L0.919540334,0.357333333 C0.919540334,0.301333333 0.908878997,0.26 0.885557322,0.232666667 L0.885557322,0.232666667 C0.861569313,0.204 0.823588299,0.188666667 0.773613281,0.188666667 L0.773613281,0.188666667 C0.725637264,0.188666667 0.688322584,0.203333333 0.663668241,0.232 L0.663668241,0.232 Z" id="path-21"></path>
        <path d="M0.662335574,0.314 C0.640346566,0.340666667 0.629018895,0.377333333 0.629018895,0.422 L0.629018895,0.422 L0.629018895,1.11333333 C0.629018895,1.144 0.636348565,1.166 0.65234057,1.18133333 L0.65234057,1.18133333 C0.667666243,1.196 0.694319586,1.204 0.736298601,1.206 L0.736298601,1.206 L0.894885992,1.21333333 L0.908212664,1.21333333 C0.948859012,1.21333333 0.981509357,1.202 1.00549737,1.18 L1.00549737,1.18 C1.02948537,1.15733333 1.04147938,1.12733333 1.04147938,1.09 L1.04147938,1.09 C1.04147938,1.04533333 1.02948537,1.01133333 1.00683003,0.988 L1.00683003,0.988 C0.988839026,0.968666667 0.964851017,0.957333333 0.932867006,0.952 L0.932867006,0.952 L0.932867006,0.744 L1.13276708,0.962666667 C1.20606377,1.04333333 1.2820258,1.104 1.35665516,1.142 L1.35665516,1.142 C1.43328352,1.182 1.51524255,1.202 1.59853425,1.202 L1.59853425,1.202 C1.72513763,1.202 1.827753,1.162 1.90438136,1.084 L1.90438136,1.084 C1.97901072,1.00666667 2.01765807,0.901333333 2.01765807,0.771333333 L2.01765807,0.771333333 C2.01765807,0.704 2.0083294,0.64 1.99033839,0.581333333 L1.99033839,0.581333333 C1.97234738,0.523333333 1.94502771,0.467333333 1.90704669,0.413333333 L1.90704669,0.413333333 C1.88105968,0.377333333 1.85374001,0.353333333 1.825754,0.34 L1.825754,0.34 C1.79843432,0.326666667 1.75978697,0.320666667 1.70847929,0.320666667 L1.70847929,0.320666667 C1.65450627,0.320666667 1.61519259,0.331333333 1.58587391,0.353333333 L1.58587391,0.353333333 C1.5538899,0.376 1.53789789,0.409333333 1.53789789,0.454 L1.53789789,0.454 C1.53789789,0.503333333 1.57054824,0.548 1.63584893,0.586 L1.63584893,0.586 C1.65250727,0.595333333 1.66516761,0.603333333 1.67516261,0.611333333 L1.67516261,0.611333333 C1.68848928,0.621333333 1.69915062,0.636 1.70714662,0.656 L1.70714662,0.656 C1.71580896,0.677333333 1.72047329,0.702666667 1.72047329,0.732 L1.72047329,0.732 C1.72047329,0.778666667 1.70847929,0.813333333 1.68715661,0.834 L1.68715661,0.834 C1.64850927,0.87 1.55322356,0.881333333 1.46393487,0.838666667 L1.46393487,0.838666667 C1.42528752,0.82 1.38464117,0.79 1.34399482,0.750666667 L1.34399482,0.750666667 L0.946193677,0.36 C0.916208666,0.33 0.886223656,0.307333333 0.856904978,0.293333333 L0.856904978,0.293333333 C0.826919967,0.278 0.795602289,0.27 0.765617278,0.27 L0.765617278,0.27 C0.72497093,0.27 0.68765625,0.284666667 0.662335574,0.314 L0.662335574,0.314 Z" id="path-23"></path>
        <path d="M0.690321584,0.485333333 C0.649675236,0.566 0.629018895,0.668666667 0.629018895,0.790666667 L0.629018895,0.790666667 C0.629018895,0.943333333 0.66899891,1.06666667 0.746293605,1.156 L0.746293605,1.156 C0.8255873,1.248 0.933533339,1.294 1.06746639,1.294 L1.06746639,1.294 C1.15675509,1.294 1.23071811,1.27333333 1.28868914,1.232 L1.28868914,1.232 C1.32733648,1.204 1.35932049,1.16533333 1.38464117,1.118 L1.38464117,1.118 C1.40929551,1.156 1.43861419,1.18733333 1.46993187,1.21066667 L1.46993187,1.21066667 C1.52123955,1.246 1.58320858,1.264 1.6551726,1.264 L1.6551726,1.264 C1.76445131,1.264 1.85374001,1.22533333 1.91970703,1.14866667 L1.91970703,1.14866667 C1.98434139,1.07333333 2.01765807,0.972666667 2.01765807,0.849333333 L2.01765807,0.849333333 C2.01765807,0.73 1.99633539,0.627333333 1.95369004,0.544 L1.95369004,0.544 C1.90638036,0.453333333 1.84641034,0.406666667 1.77577898,0.406666667 L1.77577898,0.406666667 C1.74112963,0.406666667 1.71047829,0.418666667 1.68782295,0.44 L1.68782295,0.44 C1.6631686,0.462 1.65050827,0.492666667 1.65050827,0.529333333 L1.65050827,0.529333333 C1.65050827,0.547333333 1.65583894,0.583333333 1.70048328,0.670666667 L1.70048328,0.670666667 C1.72780296,0.726666667 1.7424623,0.776666667 1.7424623,0.82 L1.7424623,0.82 C1.7424623,0.856 1.73313363,0.882666667 1.71447629,0.9 L1.71447629,0.9 C1.69581895,0.919333333 1.66783294,0.928666667 1.63051826,0.928666667 L1.63051826,0.928666667 C1.58654024,0.928666667 1.5538899,0.920666667 1.53789789,0.905333333 L1.53789789,0.905333333 C1.52790289,0.897333333 1.50991188,0.871333333 1.49858421,0.789333333 L1.49858421,0.789333333 C1.49858421,0.785333333 1.49725154,0.780666667 1.49658521,0.772 L1.49658521,0.772 C1.48659021,0.696666667 1.44061319,0.654666667 1.3693155,0.654666667 L1.3693155,0.654666667 C1.32133948,0.654666667 1.28735647,0.664666667 1.26470113,0.686 L1.26470113,0.686 C1.24137945,0.707333333 1.23005178,0.743333333 1.22871911,0.795333333 L1.22871911,0.795333333 C1.22538745,0.881333333 1.20673011,0.917333333 1.1927371,0.932 L1.1927371,0.932 C1.17141443,0.952 1.13210074,0.964 1.07546239,0.964 L1.07546239,0.964 C1.02415471,0.964 0.984174691,0.95 0.958187682,0.923333333 L0.958187682,0.923333333 C0.931534339,0.897333333 0.918874001,0.859333333 0.918874001,0.806666667 L0.918874001,0.806666667 C0.918874001,0.76 0.933533339,0.706 0.960853016,0.643333333 L0.960853016,0.643333333 C1.0021657,0.547333333 1.0081627,0.518 1.0081627,0.502 L1.0081627,0.502 C1.0081627,0.458 0.994836028,0.421333333 0.967516352,0.394 L0.967516352,0.394 C0.940196675,0.365333333 0.904880996,0.352 0.86290198,0.352 L0.86290198,0.352 C0.792936955,0.352 0.734965934,0.396666667 0.690321584,0.485333333 L0.690321584,0.485333333 Z" id="path-25"></path>
        <path d="M1.05014172,0.237333333 C1.02148937,0.237333333 0.997501363,0.245107185 0.979510356,0.259948174 L0.979510356,0.259948174 C0.965517351,0.270548881 0.949525345,0.291750294 0.949525345,0.327085984 L0.949525345,0.327085984 L0.949525345,0.751114252 L0.897551326,0.751114252 L0.897551326,0.64228033 C0.897551326,0.588570082 0.887556323,0.550407538 0.866899982,0.522845701 L0.866899982,0.522845701 C0.843578307,0.49457715 0.808928961,0.480442874 0.76228561,0.480442874 L0.76228561,0.480442874 C0.716974927,0.480442874 0.681659248,0.49457715 0.65967024,0.522845701 L0.65967024,0.522845701 C0.639680233,0.548994111 0.629018895,0.587863369 0.629018895,0.64228033 L0.629018895,0.64228033 L0.629018895,1.06348174 C0.629018895,1.11860542 0.639013899,1.15676796 0.65967024,1.18362309 L0.65967024,1.18362309 C0.681659248,1.21259835 0.716308594,1.22743934 0.76228561,1.22743934 L0.76228561,1.22743934 C0.799600291,1.22743934 0.832250636,1.21542521 0.856904978,1.19210365 L0.856904978,1.19210365 C0.882225654,1.1687821 0.896218659,1.1383934 0.896218659,1.10447114 L0.896218659,1.10447114 L0.896218659,1.08963015 C0.897551326,1.07902945 0.897551326,1.07054888 0.897551326,1.06348174 L0.897551326,1.06348174 L0.897551326,1.04157362 L0.949525345,1.04157362 L0.949525345,1.11577856 C0.949525345,1.1383934 0.955522347,1.15818139 0.967516352,1.17443581 L0.967516352,1.17443581 C0.979510356,1.19069022 0.996168695,1.20270436 1.01882404,1.20835807 L1.01882404,1.20835807 L1.0914544,1.22885277 C1.10011673,1.23238634 1.10877907,1.23379976 1.11944041,1.23521319 L1.11944041,1.23521319 C1.12810274,1.23662662 1.13743141,1.23733333 1.14542742,1.23733333 L1.14542742,1.23733333 C1.1927371,1.23733333 1.21939044,1.21683863 1.23338345,1.20058422 L1.23338345,1.20058422 C1.25270712,1.17726266 1.26336846,1.14687397 1.26336846,1.11012485 L1.26336846,1.11012485 C1.26336846,1.08821673 1.25137445,1.06489517 1.22738645,1.04157362 L1.22738645,1.04157362 L1.89505269,1.04157362 C1.91770803,1.04157362 1.93636537,1.03733333 1.94902571,1.02814605 L1.94902571,1.02814605 C1.96768305,1.01683863 1.97901072,1.00058422 1.98367505,0.980796231 L1.98367505,0.980796231 L2.01565907,0.799170789 L2.01699173,0.787156655 C2.01765807,0.782209658 2.01765807,0.776555948 2.01765807,0.76948881 L2.01765807,0.76948881 C2.01765807,0.749700824 2.01366007,0.733446408 2.0063304,0.723552415 L2.0063304,0.723552415 C1.99833439,0.712244994 1.98567406,0.70023086 1.96101971,0.686096584 L1.96101971,0.686096584 L1.23404978,0.266308598 C1.21539244,0.255707892 1.19806777,0.248640754 1.1807431,0.244400471 L1.1807431,0.244400471 C1.16341842,0.239453475 1.14142941,0.237333333 1.11211074,0.237333333 L1.11211074,0.237333333 L1.05014172,0.237333333 Z M1.21339344,0.53768669 L1.59586891,0.751114252 L1.21339344,0.751114252 L1.21339344,0.53768669 Z" id="path-27"></path>
        <path d="M0.673663245,0.628 C0.643678234,0.694666667 0.629018895,0.788 0.629018895,0.912666667 L0.629018895,0.912666667 C0.629018895,1.086 0.671664244,1.22133333 0.754289608,1.31466667 L0.754289608,1.31466667 C0.838913972,1.40933333 0.96151935,1.45733333 1.12010674,1.45733333 L1.12010674,1.45733333 C1.25937046,1.45733333 1.37397983,1.418 1.46193586,1.34066667 L1.46193586,1.34066667 C1.54922556,1.26333333 1.59386991,1.16066667 1.59386991,1.03733333 L1.59386991,1.03733333 C1.59386991,1.00333333 1.58987191,0.97 1.58387491,0.935333333 L1.58387491,0.935333333 C1.57987691,0.914 1.57454624,0.89 1.5678829,0.864 L1.5678829,0.864 L1.71514262,0.864 L1.71514262,1.28533333 C1.71514262,1.336 1.72647029,1.37066667 1.7504583,1.39333333 L1.7504583,1.39333333 C1.77444631,1.41666667 1.81176099,1.42733333 1.86506768,1.42733333 L1.86506768,1.42733333 C1.9190407,1.42733333 1.95702171,1.41666667 1.98167605,1.39333333 L1.98167605,1.39333333 C2.00566406,1.37066667 2.01765807,1.33533333 2.01765807,1.28533333 L2.01765807,1.28533333 L2.01765807,0.658 C2.01765807,0.624666667 2.00899573,0.601333333 1.99367006,0.587333333 L1.99367006,0.587333333 C1.97634539,0.569333333 1.94636037,0.561333333 1.89705169,0.561333333 L1.89705169,0.561333333 L1.40596384,0.561333333 C1.34599382,0.561333333 1.30268214,0.571333333 1.2740298,0.592 L1.2740298,0.592 C1.24337845,0.614 1.22805278,0.65 1.22805278,0.697333333 L1.22805278,0.697333333 C1.22805278,0.715333333 1.23271711,0.746 1.27269713,0.827333333 L1.27269713,0.827333333 C1.29801781,0.878 1.31067814,0.922 1.31067814,0.957333333 L1.31067814,0.957333333 C1.31067814,1.01266667 1.29468614,1.05333333 1.25937046,1.084 L1.25937046,1.084 C1.22472111,1.11533333 1.1787441,1.13 1.11810774,1.13 L1.11810774,1.13 C1.05547238,1.13 1.0101617,1.11466667 0.976845022,1.082 L0.976845022,1.082 C0.945527344,1.04933333 0.928869004,1.00133333 0.928869004,0.938666667 L0.928869004,0.938666667 C0.928869004,0.898666667 0.938197674,0.848 0.956188681,0.79 L0.956188681,0.79 C0.984174691,0.703333333 0.987506359,0.674 0.987506359,0.66 L0.987506359,0.66 C0.987506359,0.62 0.97084802,0.584666667 0.941529342,0.557333333 L0.941529342,0.557333333 C0.910877998,0.528666667 0.873563318,0.514 0.830917969,0.514 L0.830917969,0.514 C0.782941951,0.514 0.716308594,0.534 0.673663245,0.628 L0.673663245,0.628 Z" id="path-29"></path>
        <path d="M0.79760129,0.728235571 C0.685657249,0.817988221 0.629018895,0.942369847 0.629018895,1.09714016 L0.629018895,1.09714016 C0.629018895,1.24555006 0.671664244,1.36639812 0.755622275,1.45685748 L0.755622275,1.45685748 C0.840246639,1.54873027 0.952857013,1.59466667 1.08878906,1.59466667 L1.08878906,1.59466667 C1.21739144,1.59466667 1.32667015,1.55438398 1.41462618,1.47240518 L1.41462618,1.47240518 C1.50324855,1.3911331 1.5478929,1.2886596 1.5478929,1.16922497 L1.5478929,1.16922497 C1.5478929,1.11198115 1.53723156,1.05756419 1.51590888,1.0066808 L1.51590888,1.0066808 C1.51057822,0.994666667 1.50458121,0.982652532 1.49791788,0.969931684 L1.49791788,0.969931684 C1.56721657,0.99537338 1.62252226,1.02788221 1.66250227,1.06604476 L1.66250227,1.06604476 C1.72113963,1.12258186 1.75578897,1.20032038 1.76511764,1.29643345 L1.76511764,1.29643345 C1.76844931,1.32046172 1.77111464,1.35085041 1.77377998,1.38971967 L1.77377998,1.38971967 C1.78110965,1.54731684 1.86173601,1.56922497 1.90837936,1.56922497 L1.90837936,1.56922497 C1.93236737,1.56922497 1.97567905,1.56074441 1.99766806,1.49926031 L1.99766806,1.49926031 C2.01099473,1.46463133 2.01765807,1.41092108 2.01765807,1.33388928 L2.01765807,1.33388928 C2.01765807,1.11268787 1.94502771,0.932475854 1.80309866,0.797493522 L1.80309866,0.797493522 C1.6611696,0.663924617 1.4725972,0.594666667 1.24071312,0.594666667 L1.24071312,0.594666667 C1.05480605,0.594666667 0.904880996,0.639896349 0.79760129,0.728235571 L0.79760129,0.728235571 Z M0.942195676,1.21728151 C0.910877998,1.19042638 0.896218659,1.15438398 0.896218659,1.11127444 L0.896218659,1.11127444 C0.896218659,1.06251119 0.912210665,1.02293522 0.946193677,0.991839812 L0.946193677,0.991839812 C0.981509357,0.959330978 1.02615371,0.944489988 1.08279206,0.944489988 L1.08279206,0.944489988 C1.13476608,0.944489988 1.17607876,0.958624264 1.20939544,0.98971967 L1.20939544,0.98971967 C1.24071312,1.02081508 1.25737146,1.05685748 1.25737146,1.10208716 L1.25737146,1.10208716 C1.25737146,1.14802356 1.24071312,1.1861861 1.20806277,1.21516137 L1.20806277,1.21516137 C1.17341343,1.24555006 1.12876908,1.26039105 1.07279706,1.26039105 L1.07279706,1.26039105 C1.0181577,1.26039105 0.975512355,1.24696349 0.942195676,1.21728151 L0.942195676,1.21728151 Z" id="path-31"></path>
        <path d="M1.64784293,0.0413333333 C1.62718659,0.0626666667 1.61719159,0.092 1.61719159,0.131333333 L1.61719159,0.131333333 C1.61719159,0.164 1.62718659,0.193333333 1.6471766,0.218666667 L1.6471766,0.218666667 C1.66450127,0.239333333 1.68649028,0.254 1.71181096,0.260666667 L1.71181096,0.260666667 L1.71181096,0.616 L0.745627271,0.268666667 C0.738297602,0.265333333 0.731634266,0.263333333 0.723638263,0.262666667 L0.723638263,0.262666667 C0.706979924,0.261333333 0.66899891,0.261333333 0.648342569,0.284666667 L0.648342569,0.284666667 C0.636348565,0.298 0.629018895,0.315333333 0.629018895,0.334 L0.629018895,0.334 L0.629018895,0.523333333 C0.629018895,0.548666667 0.635015898,0.568666667 0.647009902,0.584666667 L0.647009902,0.584666667 C0.659003906,0.600666667 0.676994913,0.612666667 0.702981922,0.62 L0.702981922,0.62 L1.85907068,0.952 L1.92637037,0.952666667 C1.95502271,0.952666667 1.97767805,0.945333333 1.99500273,0.928 L1.99500273,0.928 C2.00966206,0.911333333 2.01765807,0.888666667 2.01765807,0.860666667 L2.01765807,0.860666667 L2.01765807,0.138 C2.01765807,0.109333333 2.00899573,0.0853333333 1.99300372,0.064 L1.99300372,0.064 C1.97634539,0.046 1.95302371,0.034 1.92437137,0.0306666667 L1.92437137,0.0306666667 L1.76511764,0.012 L1.75179097,0.0106666667 C1.7444613,0.0106666667 1.73913063,0.01 1.73513263,0.01 L1.73513263,0.01 C1.69715162,0.01 1.66716661,0.0213333333 1.64784293,0.0413333333 L1.64784293,0.0413333333 Z" id="path-33"></path>
    </defs>
    <g id="sub-navbar-test" stroke="none" stroke-width="1" fill="none" fill-rule="evenodd">
        <g id="Home-Page-1336" transform="translate(-220.000000, -85.000000)">
            <g id="menuChannels-1024" transform="translate(-239.000000, 69.000000)">
                <g transform="translate(0.414062, 0.000000)" id="iconLive">
                    <g transform="translate(458.585938, 16.000000)">
                        <g id="Group-3">
                            <mask id="mask-2" fill="white">
                                <use xlink:href="#path-1"></use>
                            </mask>
                            <g id="Clip-2"></g>
                            <polygon id="Fill-1" fill="#231F20" mask="url(#mask-2)" points="-3.33166788 23.1973333 36.6483467 23.1973333 36.6483467 -2.80266667 -3.33166788 -2.80266667"></polygon>
                        </g>
                        <g id="Group-6" transform="translate(26.653343, 4.666667)">
                            <mask id="mask-4" fill="white">
                                <use xlink:href="#path-3"></use>
                            </mask>
                            <g id="Clip-5"></g>
                            <polygon id="Fill-4" fill="#231F20" mask="url(#mask-4)" points="-2.68399164 4.85533333 5.36731695 4.85533333 5.36731695 -3.226 -2.68399164 -3.226"></polygon>
                        </g>
                        <g id="Group-9" transform="translate(26.653343, 6.000000)">
                            <mask id="mask-6" fill="white">
                                <use xlink:href="#path-5"></use>
                            </mask>
                            <g id="Clip-8"></g>
                            <polygon id="Fill-7" fill="#231F20" mask="url(#mask-6)" points="-2.68399164 4.46533333 5.36731695 4.46533333 5.36731695 -3.14466667 -2.68399164 -3.14466667"></polygon>
                        </g>
                        <g id="Group-12" transform="translate(26.653343, 7.333333)">
                            <mask id="mask-8" fill="white">
                                <use xlink:href="#path-7"></use>
                            </mask>
                            <g id="Clip-11"></g>
                            <polygon id="Fill-10" fill="#231F20" mask="url(#mask-8)" points="-2.68399164 4.54666667 5.36731695 4.54666667 5.36731695 -3.06333333 -2.68399164 -3.06333333"></polygon>
                        </g>
                        <g id="Group-15" transform="translate(26.653343, 8.666667)">
                            <mask id="mask-10" fill="white">
                                <use xlink:href="#path-9"></use>
                            </mask>
                            <g id="Clip-14"></g>
                            <polygon id="Fill-13" fill="#231F20" mask="url(#mask-10)" points="-2.68399164 4.62733333 5.36731695 4.62733333 5.36731695 -2.982 -2.68399164 -2.982"></polygon>
                        </g>
                        <g id="Group-18" transform="translate(26.653343, 10.666667)">
                            <mask id="mask-12" fill="white">
                                <use xlink:href="#path-11"></use>
                            </mask>
                            <g id="Clip-17"></g>
                            <polygon id="Fill-16" fill="#231F20" mask="url(#mask-12)" points="-2.68399164 4.514 5.36731695 4.514 5.36731695 -3.096 -2.68399164 -3.096"></polygon>
                        </g>
                        <g id="Group-21" transform="translate(26.653343, 11.333333)">
                            <mask id="mask-14" fill="white">
                                <use xlink:href="#path-13"></use>
                            </mask>
                            <g id="Clip-20"></g>
                            <polygon id="Fill-19" fill="#231F20" mask="url(#mask-14)" points="-2.68399164 4.79066667 5.36731695 4.79066667 5.36731695 -2.81866667 -2.68399164 -2.81866667"></polygon>
                        </g>
                        <g id="Group-24" transform="translate(26.653343, 12.666667)">
                            <mask id="mask-16" fill="white">
                                <use xlink:href="#path-15"></use>
                            </mask>
                            <g id="Clip-23"></g>
                            <polygon id="Fill-22" fill="#231F20" mask="url(#mask-16)" points="-2.68399164 4.872 5.36731695 4.872 5.36731695 -2.738 -2.68399164 -2.738"></polygon>
                        </g>
                        <g id="Group-27" transform="translate(26.653343, 14.666667)">
                            <mask id="mask-18" fill="white">
                                <use xlink:href="#path-17"></use>
                            </mask>
                            <g id="Clip-26"></g>
                            <polygon id="Fill-25" fill="#231F20" mask="url(#mask-18)" points="-2.68399164 4.28666667 5.36731695 4.28666667 5.36731695 -3.32333333 -2.68399164 -3.32333333"></polygon>
                        </g>
                        <g id="Group-30" transform="translate(3.998001, 4.666667)">
                            <mask id="mask-20" fill="white">
                                <use xlink:href="#path-19"></use>
                            </mask>
                            <g id="Clip-29"></g>
                            <polygon id="Fill-28" fill="#231F20" mask="url(#mask-20)" points="-2.70264898 4.85533333 5.34865961 4.85533333 5.34865961 -3.226 -2.70264898 -3.226"></polygon>
                        </g>
                        <g id="Group-33" transform="translate(3.998001, 6.000000)">
                            <mask id="mask-22" fill="white">
                                <use xlink:href="#path-21"></use>
                            </mask>
                            <g id="Clip-32"></g>
                            <polygon id="Fill-31" fill="#231F20" mask="url(#mask-22)" points="-2.70264898 4.46533333 5.34865961 4.46533333 5.34865961 -3.14466667 -2.70264898 -3.14466667"></polygon>
                        </g>
                        <g id="Group-36" transform="translate(3.998001, 7.333333)">
                            <mask id="mask-24" fill="white">
                                <use xlink:href="#path-23"></use>
                            </mask>
                            <g id="Clip-35"></g>
                            <polygon id="Fill-34" fill="#231F20" mask="url(#mask-24)" points="-2.70264898 4.54666667 5.34865961 4.54666667 5.34865961 -3.06333333 -2.70264898 -3.06333333"></polygon>
                        </g>
                        <g id="Group-39" transform="translate(3.998001, 8.666667)">
                            <mask id="mask-26" fill="white">
                                <use xlink:href="#path-25"></use>
                            </mask>
                            <g id="Clip-38"></g>
                            <polygon id="Fill-37" fill="#231F20" mask="url(#mask-26)" points="-2.70264898 4.62733333 5.34865961 4.62733333 5.34865961 -2.982 -2.70264898 -2.982"></polygon>
                        </g>
                        <g id="Group-42" transform="translate(3.998001, 10.666667)">
                            <mask id="mask-28" fill="white">
                                <use xlink:href="#path-27"></use>
                            </mask>
                            <g id="Clip-41"></g>
                            <polygon id="Fill-40" fill="#231F20" mask="url(#mask-28)" points="-2.70264898 4.514 5.34865961 4.514 5.34865961 -3.096 -2.70264898 -3.096"></polygon>
                        </g>
                        <g id="Group-45" transform="translate(3.998001, 11.333333)">
                            <mask id="mask-30" fill="white">
                                <use xlink:href="#path-29"></use>
                            </mask>
                            <g id="Clip-44"></g>
                            <polygon id="Fill-43" fill="#231F20" mask="url(#mask-30)" points="-2.70264898 4.79066667 5.34865961 4.79066667 5.34865961 -2.81866667 -2.70264898 -2.81866667"></polygon>
                        </g>
                        <g id="Group-48" transform="translate(3.998001, 12.666667)">
                            <mask id="mask-32" fill="white">
                                <use xlink:href="#path-31"></use>
                            </mask>
                            <g id="Clip-47"></g>
                            <polygon id="Fill-46" fill="#231F20" mask="url(#mask-32)" points="-2.70264898 4.872 5.34865961 4.872 5.34865961 -2.738 -2.70264898 -2.738"></polygon>
                        </g>
                        <g id="Group-51" transform="translate(3.998001, 14.666667)">
                            <mask id="mask-34" fill="white">
                                <use xlink:href="#path-33"></use>
                            </mask>
                            <g id="Clip-50"></g>
                            <polygon id="Fill-49" fill="#231F20" mask="url(#mask-34)" points="-2.70264898 4.28666667 5.34865961 4.28666667 5.34865961 -3.32333333 -2.70264898 -3.32333333"></polygon>
                        </g>
                        <g id="Group-60" transform="translate(1.999001, 3.333333)" fill="#231F20">
                            <path d="M12.2507427,3.94273333 C12.2507427,3.3734 11.9622202,3.0594 11.4931214,3.0594 L11.1226399,3.0594 L11.1226399,4.81673333 L11.4884571,4.81673333 C11.9582222,4.81673333 12.2507427,4.52406667 12.2507427,3.94273333" id="Fill-52"></path>
                            <path d="M9.68689099,10.7949333 C10.4611706,10.7949333 11.0042325,10.1389333 11.0042325,9.3576 C11.0042325,8.58893333 10.4545073,7.9076 9.66690098,7.9076 C8.88595803,7.9076 8.33623283,8.56226667 8.33623283,9.33693333 C8.33623283,10.1456 8.88595803,10.7949333 9.68689099,10.7949333" id="Fill-54"></path>
                            <polygon id="Fill-56" points="8.01419381 3.33986667 8.00153348 3.3352 7.67436369 4.4252 8.3413636 4.4252"></polygon>
                            <path d="M0.917541334,2.34766667 C0.917541334,1.40233333 1.68315861,0.632333333 2.62335529,0.632333333 L4.45044195,0.632333333 L4.45044195,13.5663333 L2.62335529,13.5663333 C1.68315861,13.5663333 0.917541334,12.797 0.917541334,11.8503333 L0.917541334,2.34766667 Z M7.68749046,2.34433333 L8.32850336,2.34433333 L9.59453715,5.53166667 L8.71164517,5.53166667 L8.55705578,5.07166667 L7.45027571,5.07166667 L7.28235965,5.53166667 L6.40879633,5.53166667 L7.68749046,2.34433333 Z M12.2558735,9.31766667 C12.2558735,10.7683333 11.130436,11.8943333 9.7264712,11.8943333 C8.36315271,11.8943333 7.08512491,10.9143333 7.08512491,9.46366667 C7.08512491,7.94633333 8.17791197,6.80766667 9.66716751,6.80766667 C11.096453,6.80766667 12.2558735,7.91366667 12.2558735,9.31766667 L12.2558735,9.31766667 Z M10.3088467,2.34433333 L11.3943041,2.34433333 C11.78944,2.34433333 12.1046157,2.413 12.3285038,2.53833333 C12.780278,2.797 13.0641361,3.28766667 13.0641361,3.93766667 C13.0641361,4.989 12.4444459,5.53166667 11.4502762,5.53166667 L10.3088467,5.53166667 L10.3088467,2.34433333 Z M13.1987355,6.90033333 L14.2775295,6.90033333 L16.1839099,10.0003333 L16.1312695,6.90033333 L17.3293373,6.90033333 L17.3293373,11.8023333 L16.2432136,11.8023333 L14.3634866,8.80766667 L14.3968032,11.8023333 L13.1987355,11.8023333 L13.1987355,6.90033333 Z M13.9770131,2.34433333 L15.0231568,2.34433333 L15.6561737,4.44233333 L15.6641697,4.44233333 L16.2885243,2.34433333 L17.3393323,2.34433333 L17.3393323,5.53166667 L16.5903734,5.53166667 L16.615694,3.145 L16.607698,3.137 L15.9267051,5.53166667 L15.3889739,5.53166667 L14.699985,3.11566667 L14.725972,5.53166667 L13.9770131,5.53166667 L13.9770131,2.34433333 Z M18.3468287,5.53166667 L19.160422,5.53166667 L19.160422,2.34433333 L18.3468287,2.34433333 L18.3468287,5.53166667 Z M19.9220412,2.34433333 L21.989008,2.34433333 L21.989008,3.059 L21.3653198,3.059 L21.3653198,5.53166667 L20.5510601,5.53166667 L20.5510601,3.059 L19.9220412,3.059 L19.9220412,2.34433333 Z M23.9433644,0.632333333 L25.7691184,0.632333333 C26.7099814,0.632333333 27.4755987,1.40233333 27.4755987,2.34766667 L27.4755987,11.8503333 C27.4755987,12.797 26.7099814,13.5663333 25.7691184,13.5663333 L23.9433644,13.5663333 L23.9433644,0.632333333 Z M21.2113967,8.00033333 L19.6888245,8.00033333 L19.6888245,8.76166667 L21.1647534,8.76166667 L21.1647534,9.861 L19.6888245,9.861 L19.6888245,10.7016667 L21.2113967,10.7016667 L21.2113967,11.8023333 L18.4907567,11.8023333 L18.4907567,6.90033333 L21.2113967,6.90033333 L21.2113967,8.00033333 Z M2.62335529,14.1723333 L25.7691184,14.1723333 C27.0431482,14.1723333 28.0786305,13.131 28.0786305,11.8503333 L28.0786305,2.34766667 C28.0786305,1.06766667 27.0431482,0.0263333333 25.7691184,0.0263333333 L2.62335529,0.0263333333 C1.34999182,0.0263333333 0.314509448,1.06766667 0.314509448,2.34766667 L0.314509448,11.8503333 C0.314509448,13.131 1.34999182,14.1723333 2.62335529,14.1723333 L2.62335529,14.1723333 Z" id="Fill-58"></path>
                        </g>
                    </g>
                </g>
            </g>
        </g>
    </g>
</svg>