<?xml version="1.0" encoding="UTF-8"?>
<svg width="18px" height="18px" viewBox="0 0 18 18" version="1.1" xmlns="http://www.w3.org/2000/svg" xmlns:xlink="http://www.w3.org/1999/xlink">
    <!-- Generator: sketchtool 59.1 (101010) - https://sketch.com -->
    <title>BE11AE5E-4445-4B3B-A367-139896DEC4CB</title>
    <desc>Created with sketchtool.</desc>
    <g id="sub-navbar-test" stroke="none" stroke-width="1" fill="none" fill-rule="evenodd">
        <g id="Home-Page-1336" transform="translate(-592.000000, -88.000000)" fill="#231F20">
            <g id="menuChannels-1024" transform="translate(-239.000000, 69.000000)">
                <g transform="translate(0.414062, 0.000000)" id="iconNewsletter">
                    <g transform="translate(830.585938, 19.000000)">
                        <path d="M10.4872,15.8635 L8.4372,12.4475 L15.2702,3.5655 L10.4872,15.8635 Z M5.8892,10.5065 L13.7812,3.8605 L7.4452,12.0965 L5.8892,13.8475 L5.8892,10.5065 Z M2.0802,9.3565 L12.7232,3.4445 L5.2342,9.7505 L2.0802,9.3565 Z M17.4842,0.4015 C17.4802,0.3835 17.4762,0.3695 17.4712,0.3535 C17.4472,0.2735 17.4102,0.1965 17.3452,0.1345 C17.3422,0.1315 17.3372,0.1305 17.3332,0.1265 C17.3312,0.1245 17.3312,0.1205 17.3282,0.1185 C17.3222,0.1135 17.3142,0.1145 17.3082,0.1105 C17.2392,0.0555 17.1612,0.0225 17.0782,0.0095 C17.0642,0.0075 17.0522,0.0025 17.0392,0.0015 C16.9512,-0.0055 16.8662,0.0145 16.7852,0.0535 C16.7762,0.0575 16.7662,0.0535 16.7572,0.0585 L0.2572,9.2255 C0.0682,9.3305 -0.0328,9.5455 0.0092,9.7575 C0.0502,9.9695 0.2232,10.1315 0.4382,10.1585 L4.8892,10.7155 L4.8892,15.1625 C4.8892,15.3695 5.0172,15.5555 5.2112,15.6295 C5.4052,15.7035 5.6252,15.6495 5.7622,15.4945 L7.7552,13.2535 L10.1542,17.2535 C10.2452,17.4045 10.4082,17.4955 10.5832,17.4955 C10.5972,17.4955 10.6122,17.4955 10.6262,17.4935 C10.8162,17.4775 10.9802,17.3545 11.0492,17.1765 L17.4662,0.6765 C17.4672,0.6725 17.4652,0.6675 17.4662,0.6625 C17.4972,0.5775 17.5012,0.4885 17.4842,0.4015 L17.4842,0.4015 Z" id="Fill-1"></path>
                    </g>
                </g>
            </g>
        </g>
    </g>
</svg>