<?xml version="1.0" encoding="UTF-8"?>
<svg width="20px" height="19px" viewBox="0 0 20 19" version="1.1" xmlns="http://www.w3.org/2000/svg" xmlns:xlink="http://www.w3.org/1999/xlink">
    <!-- Generator: sketchtool 59.1 (101010) - https://sketch.com -->
    <title>4BB4DFD3-0AB7-48D8-9261-B8DF022E952F</title>
    <desc>Created with sketchtool.</desc>
    <defs>
        <polygon id="path-1" points="0 0 19.4302871 0 19.4302871 18 0 18"></polygon>
    </defs>
    <g id="sub-navbar-test" stroke="none" stroke-width="1" fill="none" fill-rule="evenodd">
        <g id="Home-Page-1336" transform="translate(-31.000000, -85.000000)">
            <g id="menuChannels-1024" transform="translate(-239.000000, 69.000000)">
                <g transform="translate(0.414062, 0.000000)" id="iconShop">
                    <g transform="translate(270.013672, 16.603175)">
                        <mask id="mask-2" fill="white">
                            <use xlink:href="#path-1"></use>
                        </mask>
                        <g id="Clip-2"></g>
                        <path d="M15.4438156,15.9408192 L15.8316058,9.93559017 L16.7874301,9.93559017 L16.2041743,15.9552808 C16.1998253,15.9998911 16.1631,16.0339615 16.1184014,16.0339615 L15.5295885,16.0339615 C15.4972123,16.0339615 15.4764335,16.0165586 15.4667689,16.006264 C15.457346,15.9959693 15.4416411,15.9739093 15.4438156,15.9408192 L15.4438156,15.9408192 Z M12.9979589,15.9437606 L13.1919748,9.93559017 L14.1516649,9.93559017 L13.7629083,15.9523395 C13.7600089,15.9979302 13.7223171,16.0339615 13.6768938,16.0339615 L13.0839734,16.0339615 C13.052322,16.0339615 13.0317848,16.0170489 13.0223619,16.0072444 C13.0126974,15.9971948 12.9969925,15.9758701 12.9979589,15.9437606 L12.9979589,15.9437606 Z M10.5533103,15.9464568 L10.5533103,9.93559017 L11.5146917,9.93559017 L11.3209174,15.949153 C11.3192261,15.9964595 11.2810511,16.0339615 11.2344196,16.0339615 L10.6393248,16.0339615 C10.5919685,16.0339615 10.5533103,15.9947437 10.5533103,15.9464568 L10.5533103,15.9464568 Z M7.91561219,9.93559017 L8.87699359,9.93559017 L8.87699359,15.9464568 C8.87699359,15.9947437 8.83857699,16.0339615 8.79097907,16.0339615 L8.19588423,16.0339615 C8.14925276,16.0339615 8.11131939,15.9967046 8.10986971,15.949153 L7.91561219,9.93559017 Z M5.27888057,9.93559017 L6.23808744,9.93559017 L6.43234495,15.9435154 C6.4333114,15.9758701 6.41760651,15.9971948 6.40818357,16.0072444 C6.39851901,16.0170489 6.37798184,16.0339615 6.34633043,16.0339615 L5.75341011,16.0339615 C5.70822833,16.0339615 5.67029496,15.9979302 5.66739559,15.9523395 L5.27888057,9.93559017 Z M2.64287378,9.93559017 L3.59893967,9.93559017 L3.98672986,15.9405741 C3.98866277,15.9736641 3.97295787,15.9959693 3.96353493,16.0065091 C3.95387038,16.0165586 3.93309159,16.0339615 3.90071534,16.0339615 L3.31190245,16.0339615 C3.26744551,16.0339615 3.2304786,15.9998911 3.22612955,15.9552808 L2.64287378,9.93559017 Z M17.2795974,17.2362329 C17.2730739,17.302413 17.2409392,17.3622202 17.1889922,17.4046244 L17.1626563,17.4291356 C17.1153,17.4810992 17.0519972,17.5097772 16.9848286,17.5097772 L2.44281754,17.5097772 C2.35003783,17.5097772 2.28987599,17.456588 2.2620904,17.4249687 L2.23672095,17.3999673 C2.18767335,17.3578082 2.15698839,17.2997168 2.15094805,17.2359878 L1.44350278,9.93559017 L2.15747162,9.93559017 L2.74531804,16.0030775 C2.77407009,16.3001525 3.01761682,16.5241843 3.31190245,16.5241843 L3.90071534,16.5241843 C4.0575227,16.5241843 4.20877296,16.457514 4.31604949,16.3415763 C4.42332603,16.2253935 4.47913882,16.0677869 4.46899104,15.9087096 L4.08289216,9.93559017 L4.79444486,9.93559017 L5.18513441,15.984449 C5.20494674,16.2871616 5.4542922,16.5241843 5.75341011,16.5241843 L6.34633043,16.5241843 C6.50192973,16.5241843 6.64713964,16.4616809 6.75538263,16.3481943 C6.86362562,16.2347078 6.92040487,16.0854349 6.91533098,15.9273381 L6.72179831,9.93559017 L7.43190133,9.93559017 L7.62688368,15.9653304 C7.63703146,16.2788278 7.88686015,16.5241843 8.19588423,16.5241843 L8.79097907,16.5241843 C9.10483542,16.5241843 9.36022123,16.2651016 9.36022123,15.9464568 L9.36022123,9.93559017 L10.0700826,9.93559017 L10.0700826,15.9464568 C10.0700826,16.2651016 10.3252268,16.5241843 10.6393248,16.5241843 L11.2344196,16.5241843 C11.5432021,16.5241843 11.793514,16.2788278 11.8036618,15.9655755 L11.9981609,9.93559017 L12.7085056,9.93559017 L12.5152145,15.9273381 C12.509899,16.0854349 12.5666782,16.2347078 12.6749212,16.3481943 C12.7831642,16.4616809 12.9283741,16.5241843 13.0839734,16.5241843 L13.6768938,16.5241843 C13.9760117,16.5241843 14.2255987,16.2871616 14.2451695,15.984449 L14.635859,9.93559017 L15.3474117,9.93559017 L14.9615544,15.9084645 C14.951165,16.0675418 15.0067362,16.2249033 15.1140128,16.3413312 C15.2212893,16.4572689 15.3727812,16.5241843 15.5295885,16.5241843 L16.1184014,16.5241843 C16.412687,16.5241843 16.6564754,16.3001525 16.6852274,16.0030775 L17.2730739,9.93559017 L17.9865595,9.93559017 L17.2795974,17.2362329 Z M4.04038833,7.35993732 L8.18452838,1.3557111 C8.22946855,1.29051147 8.30122785,1.25570565 8.37443684,1.25570565 C8.42034347,1.25570565 8.46673332,1.26943189 8.50708283,1.29810992 C8.55758012,1.33414129 8.59164766,1.3880658 8.60227867,1.44983387 C8.61290968,1.51160194 8.59937931,1.57410534 8.56386208,1.62533362 L4.60950566,7.35459234 L4.04038833,7.35993732 Z M7.56648022,0.916961708 C7.7583216,0.639005392 8.06420469,0.490222779 8.37516168,0.490222779 C8.57038565,0.490222779 8.76754253,0.549049513 8.93981318,0.671360096 C9.38583229,0.988044011 9.49407529,1.6118525 9.18191023,2.06457323 C9.0311432,2.28272237 8.80982495,2.41998475 8.5713521,2.46925214 L8.95962551,1.9067215 C9.06931819,1.74813443 9.11135899,1.55547688 9.0782579,1.36478022 C9.04515681,1.17383844 8.94053802,1.00765292 8.78421388,0.896372351 C8.4611762,0.667193202 8.01443225,0.746854404 7.78852332,1.07456833 L7.40097476,1.63611852 C7.36545752,1.39198758 7.41595481,1.13486573 7.56648022,0.916961708 L7.56648022,0.916961708 Z M9.57767367,2.345716 C9.63179516,2.26728035 9.67721856,2.18492293 9.71515193,2.09962416 C9.7530853,2.18492293 9.7985087,2.26728035 9.8526302,2.345716 C10.1273451,2.74377689 10.5774717,2.98128983 11.0570751,2.98128983 C11.1066059,2.98128983 11.1554119,2.97491693 11.2042179,2.9697696 L14.2374378,7.3643717 L5.19286605,7.3643717 L8.22560273,2.9697696 C8.27489195,2.97491693 8.32345632,2.98128983 8.37322877,2.98128983 C8.85283221,2.98128983 9.30295875,2.74377689 9.57767367,2.345716 L9.57767367,2.345716 Z M10.4904907,0.671360096 C10.6627613,0.549049513 10.8599182,0.490222779 11.0553838,0.490222779 C11.3660992,0.490222779 11.6719823,0.639005392 11.8638236,0.916961708 C12.014349,1.13486573 12.0648463,1.39223269 12.0293291,1.63611852 L11.6417805,1.07456833 C11.41563,0.747344627 10.9691277,0.667438314 10.64609,0.896617463 C10.3232939,1.12604172 10.2442862,1.57925268 10.4704367,1.9067215 L10.8587101,2.46925214 C10.6202373,2.41998475 10.398919,2.28272237 10.2483936,2.06457323 C9.93622858,1.6118525 10.0444716,0.988044011 10.4904907,0.671360096 L10.4904907,0.671360096 Z M14.8430717,7.38686321 L10.8664418,1.62533362 C10.7932328,1.51920039 10.8186023,1.37237867 10.923221,1.29810992 C11.028323,1.22359606 11.1728081,1.24982298 11.2460171,1.3557111 L15.4039887,7.3802717 L14.8430717,7.38686321 Z M15.9828561,7.3643717 L12.3774946,2.14031265 C12.6009874,1.66969879 12.575618,1.09344191 12.2595871,0.635818944 C11.9851138,0.237758048 11.534504,0 11.0553838,0 C10.7528833,0 10.4617386,0.0933874394 10.2136012,0.269622528 C9.99155814,0.427229152 9.82218685,0.639740727 9.71515193,0.884607005 C9.60811701,0.639740727 9.43874572,0.427229152 9.21694423,0.269622528 C8.96856523,0.0933874394 8.67742057,0 8.37516168,0 C7.89555825,0.00024511139 7.44519009,0.237758048 7.17071679,0.635818944 C6.85492752,1.0931968 6.82907484,1.66969879 7.05280924,2.14031265 L3.44720619,7.3643717 L0.613800918,7.3643717 C0.435489918,7.3643717 0.266360243,7.44280734 0.149660768,7.5795795 C0.0329612925,7.71635165 -0.0192272928,7.89748897 0.00638377225,8.0766654 L0.196533849,9.40271801 C0.240507565,9.70641102 0.501450491,9.93559017 0.803950995,9.93559017 L0.957858998,9.93559017 L1.67013654,17.2837845 C1.68801596,17.469579 1.77378887,17.639196 1.91223359,17.7629773 C2.05019508,17.9139659 2.24251968,18 2.44281754,18 L16.9848286,18 C17.1793277,18 17.3677865,17.9183779 17.5047815,17.775478 C17.6514411,17.6507163 17.7420463,17.4766872 17.7604089,17.2837845 L18.4722033,9.93559017 L18.6263529,9.93559017 C18.929095,9.93559017 19.1900379,9.70641102 19.23377,9.40271801 L19.4239201,8.07642028 C19.4495312,7.89748897 19.397101,7.71635165 19.2806431,7.5795795 C19.163702,7.44280734 18.9945723,7.3643717 18.8165029,7.3643717 L15.9828561,7.3643717 Z" id="Fill-1" fill="#231F20" mask="url(#mask-2)"></path>
                    </g>
                </g>
            </g>
        </g>
    </g>
</svg>