<?xml version="1.0" encoding="UTF-8"?>
<svg width="20px" height="20px" viewBox="0 0 20 20" version="1.1" xmlns="http://www.w3.org/2000/svg" xmlns:xlink="http://www.w3.org/1999/xlink">
    <!-- Generator: sketchtool 59.1 (101010) - https://sketch.com -->
    <title>D7ACDB1C-6A56-4A77-9D57-DCD7AF2CB017</title>
    <desc>Created with sketchtool.</desc>
    <g id="sub-navbar-test" stroke="none" stroke-width="1" fill="none" fill-rule="evenodd">
        <g id="Home-Page-1336" transform="translate(-407.000000, -85.000000)" fill="#231F20">
            <g id="menuChannels-1024" transform="translate(-239.000000, 69.000000)">
                <g transform="translate(0.414062, 0.000000)" id="iconPodcast">
                    <g transform="translate(645.820312, 16.148148)">
                        <path d="M2.65492702,5.12520191 C2.6944665,5.17249812 2.73426108,5.21927742 2.78119826,5.26062929 C2.87073606,5.33971475 2.97149796,5.39889962 3.07685154,5.44774651 C2.2679503,6.68520129 1.73276431,8.16120468 1.56924943,9.76307283 C1.488895,9.74679053 1.40598964,9.73774481 1.32104353,9.73774481 C1.22283256,9.73774481 1.1281929,9.75170106 1.03635927,9.7734108 C1.2019149,8.04645323 1.77868112,6.45543995 2.65492702,5.12520191 L2.65492702,5.12520191 Z M3.00797632,3.82804537 C4.73521386,1.81756903 7.06294132,0.710372654 9.56209156,0.710372654 C12.0604765,0.710372654 14.3884591,1.81756903 16.1162068,3.82804537 C16.2491105,3.98259799 16.3141593,4.18031163 16.3001292,4.3850034 C16.2863541,4.58943672 16.1945205,4.77603704 16.0419746,4.91068907 C15.7381584,5.178184 15.2376651,5.14251801 14.9731332,4.83573881 C13.5382327,3.16486472 11.616614,2.24478556 9.56209156,2.24478556 C7.50782425,2.24478556 5.58595042,3.16486472 4.15053974,4.83573881 C4.01814626,4.99003298 3.83371372,5.08307469 3.63142463,5.0972894 C3.42913555,5.11047031 3.23424418,5.04534111 3.08169831,4.91068907 C2.92915245,4.77629549 2.83757391,4.58943672 2.82354377,4.38526185 C2.80951363,4.18057008 2.87507264,3.98259799 3.00797632,3.82804537 L3.00797632,3.82804537 Z M16.4687459,5.12520191 C17.3449918,6.45543995 17.921758,8.04645323 18.0873137,9.7734108 C17.99548,9.75170106 17.9008404,9.73774481 17.8023743,9.73774481 C17.7174282,9.73774481 17.6347779,9.74679053 17.5546786,9.76307283 C17.3911637,8.16120468 16.8557226,6.68520129 16.0473316,5.44774651 C16.1529403,5.39915806 16.2537022,5.33919785 16.3424747,5.26062929 C16.3894119,5.21927742 16.4292064,5.17249812 16.4687459,5.12520191 L16.4687459,5.12520191 Z M17.6235538,15.0256155 L17.3273904,15.0269077 C17.2786675,14.93154 17.2217817,14.8439257 17.157243,14.7656156 C17.4676917,13.8835284 17.563862,12.9544036 17.5845245,12.2731315 C17.6556956,12.285537 17.727887,12.2953581 17.8023743,12.2953581 C17.9102788,12.2953581 18.0130815,12.2772667 18.1130781,12.2514217 C18.0919053,12.9991153 17.9840008,14.0393733 17.6235538,15.0256155 L17.6235538,15.0256155 Z M17.4773853,16.1511617 C17.498558,16.0415793 17.5125882,15.9288954 17.5125882,15.811301 C17.5125882,15.7006848 17.5008539,15.5936868 17.4822321,15.4900487 L17.9942046,15.4879811 L17.9972657,16.1488357 L17.4773853,16.1511617 Z M1.6592974,15.4181998 C1.1669671,14.3213414 1.03227778,13.0978429 1.00931937,12.2511633 C1.10957108,12.2772667 1.21288392,12.2953581 1.32104353,12.2953581 C1.39502062,12.2953581 1.46644678,12.285537 1.53685256,12.2731315 C1.55726004,12.9544036 1.65368535,13.8840453 1.96540951,14.7666494 C1.82051644,14.9429117 1.71567305,15.1672456 1.6592974,15.4181998 L1.6592974,15.4181998 Z M16.5871093,16.745078 L16.5871093,14.8775241 C16.8562328,15.0157944 17.0546955,15.3874443 17.0546955,15.811301 C17.0546955,16.2351577 16.8562328,16.6070661 16.5871093,16.745078 L16.5871093,16.745078 Z M16.1289615,16.9686366 C15.9210603,17.4966483 15.5789801,17.8708827 15.190983,17.9409225 L15.190983,13.6816796 C15.5789801,13.7517194 15.9210603,14.1259538 16.1289615,14.6539655 L16.1289615,16.9686366 Z M2.53656367,14.8777825 L2.53656367,16.7453365 C2.26744012,16.6073246 2.06923253,16.2354162 2.06923253,15.8115595 C2.06923253,15.3879612 2.26744012,15.0160528 2.53656367,14.8777825 L2.53656367,14.8777825 Z M2.99471146,14.654224 C3.20261259,14.1262122 3.54469287,13.7517194 3.93268996,13.6819381 L3.93268996,17.9411809 C3.54469287,17.8713996 3.20261259,17.4969067 2.99471146,16.9691535 L2.99471146,14.654224 Z M1.63123713,16.3387959 C1.6633789,16.388935 1.70164291,16.4336467 1.74347823,16.4737063 C1.91183989,16.884899 2.22841082,17.1797896 2.60594909,17.2464695 C2.89139862,17.904998 3.37122935,18.3474631 3.93345524,18.4076817 C3.93677146,19.0845602 4.48063063,19.6342816 5.14923048,19.6342816 C5.82012618,19.6342816 6.3660261,19.0812003 6.3660261,18.4017374 L6.3660261,13.2221569 C6.3660261,12.5421771 5.82012618,11.9893542 5.14923048,11.9893542 C4.48088572,11.9893542 3.93702655,12.5385588 3.93345524,13.2154373 C3.37122935,13.2756559 2.89139862,13.718121 2.60594909,14.376908 C2.51641129,14.3926734 2.42993463,14.4185183 2.34804964,14.4585779 C2.07560986,13.605954 2.0044388,12.7127536 1.99525544,12.0937677 C2.34753945,11.8665909 2.58324577,11.4701298 2.58324577,11.0165515 C2.58324577,10.5691759 2.35468207,10.1763331 2.01056104,9.94760556 C2.15443373,8.30464399 2.70977211,6.79736824 3.55642717,5.55732898 C3.59214025,5.55784587 3.62734314,5.56275641 3.66331131,5.55991347 C3.98727995,5.53716994 4.28318832,5.38804475 4.49619133,5.14019197 C5.84308459,3.57243911 7.64225848,2.70870188 9.56209156,2.70870188 C11.4819246,2.70870188 13.2808434,3.57243911 14.6277367,5.14070886 C14.8591064,5.40923758 15.1932788,5.56327331 15.5450526,5.56327331 C15.5534707,5.56327331 15.5616337,5.56120571 15.5700518,5.56094726 C16.4151763,6.80021119 16.9697494,8.30619468 17.1136221,9.94760556 C16.769246,10.1760747 16.5406823,10.5691759 16.5406823,11.0165515 C16.5406823,11.4703883 16.7766437,11.8671078 17.1291828,12.0942846 C17.1205096,12.7127536 17.0498487,13.6051787 16.7763886,14.4588364 C16.6945036,14.4185183 16.6075167,14.3926734 16.5179789,14.3766495 C16.2325294,13.7178625 15.7526987,13.2756559 15.1904728,13.2151788 C15.1866464,12.5385588 14.6430423,11.9893542 13.9744424,11.9893542 C13.3035467,11.9893542 12.7579019,12.5421771 12.7579019,13.2221569 L12.7579019,18.4012205 C12.7579019,19.0806834 13.3035467,19.6335063 13.9744424,19.6335063 C14.6432974,19.6335063 15.1869015,19.0840433 15.1904728,18.4074233 C15.7524436,18.3469462 16.2322743,17.9047396 16.5177238,17.2459526 C16.8508758,17.1870261 17.1398967,16.953905 17.3187172,16.6158534 L17.4064693,16.6153365 L17.864362,16.6135274 L18.2278701,16.6117182 C18.3546516,16.6112013 18.4566889,16.5067878 18.4559236,16.378597 L18.451332,15.2538261 C18.4505667,15.1261522 18.3485293,15.023031 18.2222581,15.023031 L18.112823,15.0232894 C18.4906164,13.9119579 18.5747972,12.7752983 18.5776032,12.0180421 C18.8717259,11.7838871 19.0645765,11.4241258 19.0645765,11.0165515 C19.0645765,10.6025158 18.8661139,10.2375856 18.5640833,10.003689 C18.4222513,8.00484291 17.7541617,6.16907824 16.7128703,4.66826372 C16.7355736,4.58711067 16.7511343,4.50337313 16.7570015,4.4170511 C16.7794497,4.08882061 16.6746063,3.77144499 16.4616033,3.52333376 C14.6453381,1.40999464 12.1949107,0.246197889 9.56209156,0.246197889 C6.92850709,0.246197889 4.47833479,1.40999464 2.66257982,3.52333376 C2.44932173,3.77118655 2.34422324,4.08856216 2.36667146,4.41730955 C2.37253861,4.50337313 2.3880993,4.58711067 2.41054753,4.66826372 C1.36951128,6.16907824 0.701421611,8.00484291 0.559589669,10.0034306 C0.257303966,10.2373271 0.0588412856,10.6025158 0.0588412856,11.0165515 C0.0588412856,11.4254181 0.252967378,11.7862132 0.548620652,12.0203682 C0.556018361,13.0825944 0.71851287,14.9162915 1.63123713,16.3387959 Z" id="Fill-1"></path>
                    </g>
                </g>
            </g>
        </g>
    </g>
</svg>