<?xml version="1.0" encoding="UTF-8" standalone="no"?>
<svg width="26px" height="26px" viewBox="0 0 26 26" version="1.1" xmlns="http://www.w3.org/2000/svg" xmlns:xlink="http://www.w3.org/1999/xlink">
    <!-- Generator: Sketch 48.2 (47327) - http://www.bohemiancoding.com/sketch -->
    <title>Artboard</title>
    <desc>Created with Sketch.</desc>
    <defs></defs>
    <g id="Page-1" stroke="none" stroke-width="1" fill="none" fill-rule="evenodd">
        <g id="Artboard" fill="#000000">
            <path d="M17.8,7 L8.2,7 C7.54,7 7,7.54 7,8.2 L7,17.8 C7,18.46 7.54,19 8.2,19 L17.8,19 C18.46,19 19,18.46 19,17.8 L19,8.2 C19,7.54 18.46,7 17.8,7 L17.8,7 Z M13,10.6 C14.32,10.6 15.4,11.68 15.4,13 C15.4,14.32 14.32,15.4 13,15.4 C11.68,15.4 10.6,14.32 10.6,13 C10.6,11.68 11.68,10.6 13,10.6 L13,10.6 Z M8.5,17.8 C8.32,17.8 8.2,17.68 8.2,17.5 L8.2,12.4 L9.46,12.4 C9.4,12.58 9.4,12.82 9.4,13 C9.4,14.98 11.02,16.6 13,16.6 C14.98,16.6 16.6,14.98 16.6,13 C16.6,12.82 16.6,12.58 16.54,12.4 L17.8,12.4 L17.8,17.5 C17.8,17.68 17.68,17.8 17.5,17.8 L8.5,17.8 L8.5,17.8 Z M17.8,9.7 C17.8,9.88 17.68,10 17.5,10 L16.3,10 C16.12,10 16,9.88 16,9.7 L16,8.5 C16,8.32 16.12,8.2 16.3,8.2 L17.5,8.2 C17.68,8.2 17.8,8.32 17.8,8.5 L17.8,9.7 L17.8,9.7 Z" id="Shape-Copy-4"></path>
        </g>
    </g>
</svg>