<?xml version="1.0" encoding="UTF-8" standalone="no"?>
<svg width="50px" height="50px" viewBox="0 0 50 50" version="1.1" xmlns="http://www.w3.org/2000/svg" xmlns:xlink="http://www.w3.org/1999/xlink">
    <!-- Generator: Sketch 48.2 (47327) - http://www.bohemiancoding.com/sketch -->
    <title>Artboard Copy</title>
    <desc>Created with Sketch.</desc>
    <defs></defs>
    <g id="Page-1" stroke="none" stroke-width="1" fill="none" fill-rule="evenodd">
        <g id="Artboard-Copy">
            <g id="Ladybird_logo" transform="translate(1.000000, 1.000000)">
                <g id="Group-4">
                    <path d="M45.435988,24.4374217 C45.435988,37.4640422 35.6023373,48.0244277 23.4724759,48.0244277 C11.3420241,48.0244277 1.50866867,37.4640422 1.50866867,24.4374217 C1.50866867,11.4108012 11.3420241,0.850710843 23.4724759,0.850710843 C35.6023373,0.850710843 45.435988,11.4108012 45.435988,24.4374217" id="Fill-1" fill="#FFFFFE"></path>
                    <path d="M43.9066566,24.4374217 C43.8496867,31.3101145 41.0912229,37.9336747 35.8889578,42.4951024 C30.8747229,46.8918193 24.093241,48.4273494 17.7356386,46.3773193 C4.00825904,41.9501988 -0.377831325,24.3016386 6.10906024,12.4861446 C10.620012,4.27008434 20.0790783,-0.446608434 29.2090181,2.49781928 C38.4136386,5.46615663 43.8296145,15.1657952 43.9066566,24.4374217 C43.9146265,25.4147651 46.9735843,25.4065 46.9656145,24.4374217 C46.9101205,17.7701747 44.3671386,11.4550783 39.6548735,6.72303614 C35.1203072,2.16928313 28.6549639,-0.108331325 22.2805361,0.196590361 C8.46637349,0.8575 -1.1193253,13.5839217 0.105379518,26.9795181 C1.25038554,39.5034458 12.041012,49.2821928 24.6644157,48.678253 C37.4855904,48.0648675 46.8617108,36.9746325 46.9656145,24.4374217 C46.9735843,23.4683434 43.9146265,23.4597831 43.9066566,24.4374217" id="Fill-3" fill="#000000"></path>
                    <ellipse id="Oval" fill="#000000" cx="45.4356209" cy="24.4375693" rx="1.53000913" ry="1"></ellipse>
                </g>
                <path d="M16.6476024,9.59455422 C16.3391386,9.79557229 16.2871867,10.2380482 16.5026687,10.5400181 C16.7181506,10.8422831 17.1275663,10.9025 17.4274699,10.688494 C19.3443735,9.32003614 22.4954277,11.3933855 21.0800361,13.3873313 C20.8911205,13.6535843 20.9289036,14.017247 21.1877771,14.216494 C21.4463554,14.415741 21.7816807,14.3351566 22.0166446,14.108753 C24.2780241,11.9320904 20.380753,7.16403614 16.6476024,9.59455422" id="Fill-5" fill="#000000"></path>
                <path d="M30.2970542,9.59455422 C30.6058133,9.79557229 30.6571747,10.2380482 30.4416928,10.5400181 C30.2262108,10.8422831 29.8167952,10.9025 29.5168916,10.688494 C27.6005783,9.32003614 24.4489337,11.3933855 25.8643253,13.3873313 C26.053241,13.6535843 26.0154578,14.017247 25.7565843,14.216494 C25.4977108,14.415741 25.1626807,14.3351566 24.9277169,14.108753 C22.6663373,11.9320904 26.5636084,7.16403614 30.2970542,9.59455422" id="Fill-6" fill="#000000"></path>
                <path d="M23.4429578,12.259741 C12.0454398,12.2789277 11.5625241,23.8981265 11.5678373,26.030512 C11.5825964,32.5041205 14.810988,39.6604819 23.507012,39.6454277 C32.2030361,39.631259 35.3912831,32.4214699 35.3768193,25.9469759 C35.3723916,23.8148855 34.8404759,12.2432108 23.4429578,12.259741" id="Fill-7" fill="#000000"></path>
                <path d="M23.4429578,12.259741 C12.0454398,12.2789277 11.5625241,23.8981265 11.5678373,26.030512 C11.5825964,32.5041205 14.810988,39.6604819 23.507012,39.6454277 C32.2030361,39.631259 35.3912831,32.4214699 35.3768193,25.9469759 C35.3723916,23.8148855 34.8404759,12.2432108 23.4429578,12.259741 Z" id="Stroke-8" stroke="#1A1919" stroke-width="0.5"></path>
                <path d="M21.9505241,39.1138072 C14.7230241,38.404488 12.6868675,31.6537048 12.6399337,25.8286084 C12.6346205,25.1750783 12.5820783,23.5636867 12.8719458,21.6768916 C12.9271446,21.3197229 13.5482048,19.0742831 15.939759,19.5270904 C18.3351506,19.9816687 20.222241,19.8573976 21.9245482,19.9925904 C23.3257711,20.1041687 23.1209157,21.7465542 23.1300663,23.311012 C23.1300663,23.311012 23.2466627,35.9500602 23.2522711,36.9595783 C23.2646687,39.2920964 21.9505241,39.1138072 21.9505241,39.1138072" id="Fill-9" fill="#DC3E2A"></path>
                <path d="M22.0877831,39.1324036 C14.8505422,38.525512 12.7193373,31.8039518 12.5900482,25.9806265 C12.5758795,25.3273916 12.4997229,23.7168855 12.7633193,21.8253675 C12.8137952,21.4679036 13.4026807,19.2139036 15.8007289,19.6330602 C18.2020241,20.0533976 20.0873434,19.9022651 21.7914217,20.0135482 C23.1941205,20.1050542 23.0125843,21.7503916 23.0432831,23.3145542 C23.0432831,23.3145542 23.3393494,35.9506506 23.3591265,36.9601687 C23.4045843,39.2920964 22.0877831,39.1324036 22.0877831,39.1324036 Z" id="Stroke-10" stroke="#000000" stroke-width="0.727620482"></path>
                <path d="M24.5401446,39.2386687 C31.7785663,38.6937651 33.9118373,31.9908012 34.0426024,26.1686566 C34.0564759,25.5157169 34.1338133,23.9058012 33.8702169,22.012512 C33.8206265,21.6541627 33.231741,19.3948494 30.8331024,19.7924578 C28.432988,20.1921325 26.5467831,20.0235843 24.8421145,20.1201084 C23.4417771,20.199512 23.6224277,21.847506 23.5911386,23.4113735 C23.5911386,23.4113735 23.2912349,36.0451084 23.2711627,37.0540361 C23.2242289,39.3856687 24.5401446,39.2386687 24.5401446,39.2386687" id="Fill-11" fill="#DC3E2A"></path>
                <path d="M24.8258795,39.2194819 C32.0560361,38.5718554 34.094259,31.8399639 34.1426687,26.0166386 C34.1473916,25.3631084 34.202,23.7523072 33.9115422,21.8628554 C33.8569337,21.5048012 33.2358735,19.2543434 30.8434337,19.6858976 C28.4492229,20.1195181 26.5609518,19.9778313 24.857759,20.0982651 C23.4588976,20.1980361 23.6625723,21.8430783 23.6531265,23.4075361 C23.6531265,23.4075361 23.5321024,36.0439277 23.526494,37.0528554 C23.5126205,39.3850783 24.8258795,39.2194819 24.8258795,39.2194819 Z" id="Stroke-12" stroke="#000000" stroke-width="0.727620482"></path>
                <path d="M20.8486145,33.1425964 C20.7916446,34.1875361 19.8328976,34.7398193 18.6191145,34.7888193 C17.5039217,34.906006 16.5144759,33.9581807 16.5664277,32.8140602 C16.5008976,32.1076928 17.4932952,31.1170663 18.7298072,31.0506506 C19.9506747,31.1406807 20.7674398,32.0486566 20.8486145,33.1425964" id="Fill-13" fill="#000000"></path>
                <path d="M20.5873795,25.4581566 C20.5239157,26.7663976 19.3080663,27.9072711 17.8968072,27.9403313 C16.3890241,27.7939217 15.2336867,26.8277952 15.2620241,25.4743916 C15.2567108,24.0598855 16.5301205,22.9866084 17.9874277,22.9550241 C19.4609699,23.1108795 20.6228012,24.2198735 20.5873795,25.4581566" id="Fill-14" fill="#000000"></path>
                <path d="M22.3141867,17.0162831 C22.3141867,18.0993012 21.4345482,18.9815964 20.3488735,18.9815964 C19.2631988,18.9815964 18.3838554,18.0993012 18.3838554,17.0162831 C18.3838554,15.9311988 19.2631988,15.0512651 20.3488735,15.0512651 C21.4345482,15.0512651 22.3141867,15.9311988 22.3141867,17.0162831" id="Fill-15" fill="#FFFFFE"></path>
                <path d="M19.9757651,17.3501325 C19.9757651,16.7169699 20.512994,16.2033554 21.1762651,16.2033554 C21.839241,16.2033554 22.3770602,16.7169699 22.3770602,17.3501325 C22.3770602,17.9832952 21.839241,18.4966145 21.1762651,18.4966145 C20.512994,18.4966145 19.9757651,17.9832952 19.9757651,17.3501325" id="Fill-16" fill="#000000"></path>
                <path d="M28.8311867,17.0162831 C28.8311867,18.0993012 27.9515482,18.9815964 26.8658735,18.9815964 C25.780494,18.9815964 24.9008554,18.0993012 24.9008554,17.0162831 C24.9008554,15.9311988 25.780494,15.0512651 26.8658735,15.0512651 C27.9515482,15.0512651 28.8311867,15.9311988 28.8311867,17.0162831" id="Fill-17" fill="#FFFFFE"></path>
                <path d="M26.4927651,17.3501325 C26.4927651,16.7169699 27.0302892,16.2033554 27.6935602,16.2033554 C28.356241,16.2033554 28.8940602,16.7169699 28.8940602,17.3501325 C28.8940602,17.9832952 28.356241,18.4966145 27.6935602,18.4966145 C27.0302892,18.4966145 26.4927651,17.9832952 26.4927651,17.3501325" id="Fill-18" fill="#000000"></path>
                <path d="M25.9617349,33.1425964 C26.0187048,34.1875361 26.9774518,34.7398193 28.1912349,34.7888193 C29.3064277,34.906006 30.2958735,33.9581807 30.2439217,32.8140602 C30.309747,32.1076928 29.3170542,31.1170663 28.0805422,31.0506506 C26.8596747,31.1406807 26.0429096,32.0486566 25.9617349,33.1425964" id="Fill-19" fill="#000000"></path>
                <path d="M26.2229699,25.4581566 C26.2861386,26.7663976 27.5022831,27.9072711 28.9135422,27.9403313 C30.4213253,27.7939217 31.5769578,26.8277952 31.5483253,25.4743916 C31.5539337,24.0598855 30.2805241,22.9866084 28.8232169,22.9550241 C27.3493795,23.1108795 26.1875482,24.2198735 26.2229699,25.4581566" id="Fill-20" fill="#000000"></path>
                <path d="M11.9807952,25.4017771 C10.6533675,24.8412289 9.43722289,22.144753 9.76575904,20.7647831 C10.0945904,19.3842229 11.1297892,19.5669398 11.2611446,20.421488 C11.3927952,21.275741 11.7346145,22.3900482 12.5788313,22.6196988" id="Fill-21" fill="#000000"></path>
                <path d="M11.9807952,25.4017771 C10.6533675,24.8412289 9.43722289,22.144753 9.76575904,20.7647831 C10.0945904,19.3842229 11.1297892,19.5669398 11.2611446,20.421488 C11.3927952,21.275741 11.7346145,22.3900482 12.5788313,22.6196988" id="Stroke-22" stroke="#000000" stroke-width="0.5"></path>
                <path d="M12.4091024,27.7074337 C11.0418253,28.1593554 9.6131506,30.7516325 9.83040361,32.1540361 C10.0473614,33.5564398 11.0937771,33.4584398 11.2936145,32.6154036 C11.4931566,31.7747289 11.9223494,30.6905301 12.7830964,30.5299518" id="Fill-23" fill="#000000"></path>
                <path d="M12.4091024,27.7074337 C11.0418253,28.1593554 9.6131506,30.7516325 9.83040361,32.1540361 C10.0473614,33.5564398 11.0937771,33.4584398 11.2936145,32.6154036 C11.4931566,31.7747289 11.9223494,30.6905301 12.7830964,30.5299518" id="Stroke-24" stroke="#000000" stroke-width="0.5"></path>
                <path d="M14.4921928,33.8985542 C13.493006,34.9358193 13.4369217,37.8941205 14.2829096,39.0341084 C15.1288976,40.173506 16.008241,39.5981988 15.7930542,38.7610663 C15.5772771,37.9233434 15.4524157,36.7644639 16.1384157,36.2210361" id="Fill-25" fill="#000000"></path>
                <path d="M14.4921928,33.8985542 C13.493006,34.9358193 13.4369217,37.8941205 14.2829096,39.0341084 C15.1288976,40.173506 16.008241,39.5981988 15.7930542,38.7610663 C15.5772771,37.9233434 15.4524157,36.7644639 16.1384157,36.2210361" id="Stroke-26" stroke="#000000" stroke-width="0.5"></path>
                <path d="M34.8348675,25.4017771 C36.162,24.8412289 37.3781446,22.144753 37.0496084,20.7647831 C36.7207771,19.3842229 35.6858735,19.5669398 35.5542229,20.421488 C35.4225723,21.275741 35.0810482,22.3900482 34.2365361,22.6196988" id="Fill-27" fill="#000000"></path>
                <path d="M34.8348675,25.4017771 C36.162,24.8412289 37.3781446,22.144753 37.0496084,20.7647831 C36.7207771,19.3842229 35.6858735,19.5669398 35.5542229,20.421488 C35.4225723,21.275741 35.0810482,22.3900482 34.2365361,22.6196988" id="Stroke-28" stroke="#000000" stroke-width="0.5"></path>
                <path d="M34.4065602,27.7074337 C35.7735422,28.1593554 37.202512,30.7516325 36.9849639,32.1540361 C36.7683012,33.5564398 35.7218855,33.4584398 35.5220482,32.6154036 C35.322506,31.7747289 34.8933133,30.6905301 34.0322711,30.5299518" id="Fill-29" fill="#000000"></path>
                <path d="M34.4065602,27.7074337 C35.7735422,28.1593554 37.202512,30.7516325 36.9849639,32.1540361 C36.7683012,33.5564398 35.7218855,33.4584398 35.5220482,32.6154036 C35.322506,31.7747289 34.8933133,30.6905301 34.0322711,30.5299518" id="Stroke-30" stroke="#000000" stroke-width="0.5"></path>
                <path d="M32.3231747,33.8985542 C33.3226566,34.9358193 33.3784458,37.8941205 32.532753,39.0341084 C31.6867651,40.173506 30.8074217,39.5981988 31.0226084,38.7610663 C31.2383855,37.9233434 31.363247,36.7644639 30.6769518,36.2210361" id="Fill-31" fill="#000000"></path>
                <path d="M32.3231747,33.8985542 C33.3226566,34.9358193 33.3784458,37.8941205 32.532753,39.0341084 C31.6867651,40.173506 30.8074217,39.5981988 31.0226084,38.7610663 C31.2383855,37.9233434 31.363247,36.7644639 30.6769518,36.2210361" id="Stroke-32" stroke="#000000" stroke-width="0.5"></path>
            </g>
        </g>
    </g>
</svg>