<?xml version="1.0" encoding="UTF-8"?>
<svg width="26px" height="26px" viewBox="0 0 26 26" version="1.1" xmlns="http://www.w3.org/2000/svg" xmlns:xlink="http://www.w3.org/1999/xlink">
    <!-- Generator: Sketch 51.3 (57544) - http://www.bohemiancoding.com/sketch -->
    <title>Artboard</title>
    <desc>Created with Sketch.</desc>
    <defs></defs>
    <g id="Artboard" stroke="none" stroke-width="1" fill="none" fill-rule="evenodd">
        <g id="linkedin" transform="translate(6.000000, 6.000000)" fill="#000000">
            <path d="M7.56107846,5.49731353 C7.60614535,5.44269715 7.63295094,5.41298763 7.65668505,5.38098846 C8.28494096,4.53409949 9.1270831,4.07505384 10.1749581,3.97877711 C10.9468473,3.90779816 11.676741,4.03322596 12.3401234,4.44363064 C13.1269791,4.93031955 13.5594425,5.67400701 13.7592558,6.55094058 C13.8591625,6.9892119 13.9193075,7.44591206 13.9236076,7.89501731 C13.9414779,9.75973669 13.9312025,11.6247911 13.9312583,13.4896781 L13.9312583,13.6778198 L10.955224,13.6778198 L10.955224,13.4771688 C10.9551682,11.8633609 10.9633216,10.2495529 10.9494162,8.63591252 C10.9459538,8.23918986 10.909487,7.8340346 10.8198,7.44870431 C10.661647,6.76951779 10.2268939,6.42138025 9.53296435,6.38697974 C9.07509144,6.36430669 8.67244921,6.52860259 8.36016413,6.87562323 C8.06463255,7.20399165 7.89469631,7.58150365 7.89558983,8.03490896 C7.89910806,9.8357417 7.89531061,11.6365186 7.89413786,13.4372955 C7.89397033,13.6915576 7.89385864,13.6916135 7.64573944,13.6916693 C6.79605822,13.6916693 5.94637701,13.6872576 5.09686333,13.6955226 C4.93508045,13.6970863 4.89113046,13.6550909 4.89152137,13.4917443 C4.89654742,11.1191708 4.89906044,8.74659725 4.8911863,6.37407956 C4.8889525,5.70684386 4.85131299,5.03971985 4.83031528,4.37253999 C4.8284724,4.31490798 4.8300919,4.25716429 4.8300919,4.18663209 L7.41805949,4.18663209 C7.46491342,4.61580068 7.51132059,5.04128351 7.56107846,5.49731353" id="Fill-1"></path>
            <path d="M3.1814758,8.93219242 C3.1814758,10.4387222 3.18153164,11.9452519 3.1814758,13.4517258 C3.1814758,13.6915241 3.18108488,13.6916358 2.93536702,13.6916358 C2.08060391,13.6916358 1.22578496,13.6888436 0.371077694,13.6944281 C0.230627595,13.6953216 0.177798254,13.6651653 0.178021634,13.5109773 C0.182545076,10.4605576 0.182321696,7.41013777 0.178524238,4.35966214 C0.178356703,4.21256649 0.220575501,4.16945418 0.368062066,4.17057108 C1.24415795,4.1769374 2.12036553,4.17749585 2.99640557,4.17018016 C3.15104029,4.16889573 3.18404467,4.22451732 3.1837096,4.36452066 C3.18013552,5.88707791 3.1814758,7.40963517 3.1814758,8.93219242" id="Fill-3"></path>
            <path d="M1.6625373,3.05619587 C0.86038015,3.04379829 0.266748122,2.59659177 0.135679978,1.83983659 C-0.0392823128,0.829936153 0.6494537,0.124949254 1.5398459,0.0693276641 C1.8462114,0.0502286844 2.14621058,0.0773693398 2.43057317,0.208772554 C3.08166967,0.509609406 3.31850819,1.1529993 3.26579053,1.6681133 C3.19118165,2.39828628 2.74162965,2.88346738 2.07389134,3.00744321 C1.93841145,3.0326293 1.79974839,3.04039175 1.6625373,3.05619587" id="Fill-5"></path>
        </g>
    </g>
</svg>