<?xml version="1.0" encoding="utf-8"?>
<!-- Generator: Adobe Illustrator 21.0.0, SVG Export Plug-In . SVG Version: 6.00 Build 0)  -->
<svg version="1.1" id="Layer_1" xmlns="http://www.w3.org/2000/svg" xmlns:xlink="http://www.w3.org/1999/xlink" x="0px" y="0px"
	 viewBox="0 0 26 26" style="enable-background:new 0 0 26 26;" xml:space="preserve">
<title>Artboard</title>
<desc>Created with Sketch.</desc>
<path d="M11.8,15.9c-0.5,2.5-1,4.8-2.8,6.1c-0.5-3.7,0.8-6.5,1.4-9.5c-1-1.7,0.1-5.2,2.3-4.4c2.7,1.1-2.3,6.4,1,7.1
	c3.5,0.7,4.9-6.1,2.8-8.3c-3.1-3.2-9.1-0.1-8.4,4.5c0.2,1.1,1.3,1.4,0.5,3c-2-0.4-2.6-2-2.5-4.1c0.1-3.4,3.1-5.9,6.1-6.2
	c3.8-0.4,7.3,1.4,7.8,4.9c0.5,4-1.7,8.3-5.7,8C13.1,17,12.6,16.4,11.8,15.9z"/>
</svg>
