<?xml version="1.0" encoding="UTF-8" standalone="no"?>
<svg width="90px" height="45px" viewBox="0 0 90 45" version="1.1" xmlns="http://www.w3.org/2000/svg" xmlns:xlink="http://www.w3.org/1999/xlink">
    <!-- Generator: Sketch 48.2 (47327) - http://www.bohemiancoding.com/sketch -->
    <title>Artboard</title>
    <desc>Created with Sketch.</desc>
    <defs>
        <polygon id="path-1" points="0.160724508 0.137225111 66.7187883 0.137225111 66.7187883 43.9666147 0.160724508 43.9666147"></polygon>
        <polygon id="path-3" points="0 0.00496519529 0.899022516 0.00496519529 0.899022516 43.4373477 0 43.4373477"></polygon>
        <polygon id="path-5" points="0.03043551 0.00496519529 0.92936327 0.00496519529 0.92936327 43.4373477 0.03043551 43.4373477"></polygon>
    </defs>
    <g id="Page-1" stroke="none" stroke-width="1" fill="none" fill-rule="evenodd">
        <g id="Artboard">
            <g id="PRH_logo" transform="translate(0.000000, 0.291111)">
                <g id="Group-3" transform="translate(11.560187, 0.052305)">
                    <mask id="mask-2" fill="white">
                        <use xlink:href="#path-1"></use>
                    </mask>
                    <g id="Clip-2"></g>
                    <path d="M17.5802215,43.2881834 C15.595849,43.2881834 14.3236598,41.7618596 14.3236598,39.4888614 C14.3236598,37.1989967 15.595849,35.6893499 17.5802215,35.6893499 C19.582029,35.6893499 20.8540287,37.2156737 20.8540287,39.4888614 C20.8540287,41.7618596 19.582029,43.2881834 17.5802215,43.2881834 Z M17.5802215,35.0108996 C15.0872007,35.0108996 13.4755969,36.8256595 13.4755969,39.4888614 C13.4755969,42.1350073 15.0872007,43.9666337 17.563355,43.9666337 C20.0567547,43.9666337 21.6850356,42.1350073 21.6850356,39.4888614 C21.6850356,36.8256595 20.0567547,35.0108996 17.5802215,35.0108996 Z M11.0670981,32.6361339 L13.5603084,32.4496548 L13.5603084,31.9239505 L7.65741135,31.9239505 L7.65741135,32.4496548 L10.1680567,32.6190778 L10.1680567,37.1989967 L3.55278674,37.1989967 L3.55278674,32.6190778 L6.06324254,32.4496548 L6.06324254,31.9239505 L0.160724508,31.9239505 L0.160724508,32.4496548 L2.63668926,32.6361339 L2.63668926,42.9320917 L0.160724508,43.1018938 L0.160724508,43.627598 L6.06324254,43.627598 L6.06324254,43.1018938 L3.55278674,42.9320917 L3.55278674,37.8772576 L10.1680567,37.8772576 L10.1680567,42.9320917 L7.65741135,43.1018938 L7.65741135,43.627598 L13.5603084,43.627598 L13.5603084,43.1018938 L11.0670981,42.9320917 L11.0670981,32.6361339 Z M3.53573072,0.900576508 L7.30150918,0.900576508 C8.96352302,0.900576508 9.98138806,1.96923056 9.98138806,3.56377839 C9.98138806,5.17500321 9.09959211,6.39640335 7.43719925,6.39640335 L3.53573072,6.39640335 L3.53573072,0.900576508 Z M6.16482058,11.4000694 L3.53573072,11.2302673 L3.53573072,7.0748537 L7.5558333,7.0748537 C9.6592189,7.0748537 10.88024,5.58207342 10.88024,3.58045538 C10.88024,1.61313889 9.59156337,0.22212616 7.47112177,0.22212616 L0.160724508,0.22212616 L0.160724508,0.748019936 L2.62001227,0.934688537 L2.62001227,11.2302673 L0.160724508,11.4000694 L0.160724508,11.9257737 L6.16482058,11.9257737 L6.16482058,11.4000694 Z M21.7363931,27.2761866 L21.7363931,27.7679683 L26.5363346,27.7679683 L26.5363346,27.2932426 L24.6027511,27.12363 L24.6027511,21.9332953 C25.2982575,20.7628737 26.5190891,19.8979443 27.8591233,19.8979443 C29.199347,19.8979443 29.9454528,20.7628737 29.9454528,22.119964 L29.9454528,27.12363 L27.9779468,27.2932426 L27.9779468,27.7679683 L32.6084652,27.7679683 L32.6084652,27.2761866 L30.7937053,27.1063845 L30.7937053,22.0350629 C30.7937053,20.4914936 30.0472204,19.1685154 28.0289254,19.1685154 C26.5869341,19.1685154 25.3228939,19.9792446 24.5855056,21.0852324 L24.5855056,19.270283 L24.1105903,19.1344034 C23.415084,19.8979443 22.499176,20.2371695 21.3969785,20.2371695 L21.3969785,20.5932612 C22.2109294,20.7460072 23.0758588,20.7291407 23.7544987,20.3899156 L23.7544987,27.1063845 L21.7363931,27.2761866 Z M3.53573072,16.7600167 L7.48798827,16.7600167 C9.16724764,16.7600167 10.2357122,17.7776922 10.2357122,19.338128 C10.2357122,20.8987533 9.33686022,22.0181964 7.52191079,22.0181964 L3.53573072,22.0181964 L3.53573072,16.7600167 Z M6.16482058,27.2424536 L3.53573072,27.072841 L3.53573072,22.7137028 L7.02993953,22.7137028 L9.50647281,27.7679683 L12.6104779,27.7679683 L12.6104779,27.2424536 L10.0831556,26.98794 L7.97977002,22.7137028 C9.96433204,22.6117457 11.1349432,21.187 11.1349432,19.338128 C11.1349432,17.4382775 9.81158596,16.0815663 7.77623491,16.0815663 L0.160724508,16.0815663 L0.160724508,16.6074601 L2.63668926,16.7939392 L2.63668926,27.072841 L0.160724508,27.2424536 L0.160724508,27.7679683 L6.16482058,27.7679683 L6.16482058,27.2424536 Z M64.9038389,11.2643794 L64.9038389,6.19267874 C64.9038389,4.64910944 64.157733,3.30926476 62.1390589,3.30926476 C60.7143132,3.30926476 59.4500835,4.11999397 58.7126952,5.24284825 L58.7126952,3.4108428 L58.2377799,3.27534224 C57.5424631,4.03869364 56.6263656,4.39478531 55.524168,4.3777293 L55.524168,4.75087699 C56.3383085,4.90343356 57.2032379,4.88675657 57.8816882,4.5475314 L57.8816882,11.2643794 L55.8632037,11.4338024 L55.8632037,11.9257737 L60.6633347,11.9257737 L60.6633347,11.4508584 L58.7297512,11.2812459 L58.7297512,6.09091118 C59.425068,4.92067909 60.6462787,4.03869364 61.9692568,4.03869364 C63.3096701,4.03869364 64.0555864,4.92067909 64.0555864,6.27757979 L64.0555864,11.2812459 L62.0880804,11.4508584 L62.0880804,11.9257737 L66.7187883,11.9257737 L66.7187883,11.4338024 L64.9038389,11.2643794 Z M37.018582,39.0310022 C35.9160054,38.759622 34.5253717,38.3862848 34.5253717,37.1819407 C34.5253717,36.3848563 35.101865,35.6721044 36.5605332,35.6721044 C37.8666449,35.6721044 38.5450953,36.2489767 39.1560796,37.3176308 L39.6986504,38.2674613 L40.1225871,38.1829392 L39.5798268,34.9771666 L39.1215886,34.9771666 L39.1049116,36.3848563 C38.6299963,35.6213154 37.7821229,35.0108996 36.4418992,35.0108996 C34.7455838,35.0108996 33.7279083,35.9607301 33.7279083,37.1989967 C33.7279083,38.9121786 35.6785478,39.4378829 36.8489694,39.7431855 C38.4433277,40.1502557 39.5290378,40.5402699 39.5290378,41.693825 C39.5290378,42.7116901 38.6637293,43.3222954 37.3576177,43.3222954 C36.0009065,43.3222954 35.153033,42.643845 34.3214576,41.2867548 L33.7957533,40.4214464 L33.3547606,40.5065369 L33.9145769,43.8136981 L34.3894921,43.8136981 L34.3388926,42.2197188 C34.9832309,43.2881834 35.9671735,43.9666337 37.4597642,43.9666337 C39.1896231,43.9666337 40.3261222,43.0509152 40.3261222,41.62598 C40.3261222,39.9806431 38.8843204,39.5057279 37.018582,39.0310022 Z M64.8697268,21.9670284 C64.8697268,20.4236486 64.2253885,19.1685154 62.4273056,19.1685154 C61.0535384,19.1685154 59.9755983,19.8952911 59.2554554,21.0173874 C59.0219776,19.9837929 58.3395475,19.1685154 56.9318578,19.1685154 C55.6935911,19.1685154 54.5313185,19.9621886 53.8280422,21.0342539 L53.8280422,19.270283 L53.3525584,19.1344034 C52.6405645,19.8979443 51.7246566,20.2371695 50.638757,20.2371695 L50.638757,20.5932612 C51.4360309,20.7460072 52.3183954,20.7120847 52.9966562,20.37267 L52.9966562,27.1063845 L50.9781717,27.2761866 L50.9781717,27.7679683 L55.405155,27.7679683 L55.405155,27.2932426 L53.8447192,27.12363 L53.8447192,21.8483943 C54.4890575,20.7291407 55.5577115,19.8979443 56.7281331,19.8979443 C58.0850338,19.8979443 58.5264056,20.8138523 58.5264056,22.2046755 L58.5264056,27.12363 L56.8640127,27.2932426 L56.8640127,27.7679683 L61.0535384,27.7679683 L61.0535384,27.2932426 L59.374279,27.12363 L59.374279,22.1029079 C59.374279,22.0011404 59.374279,21.8823168 59.357223,21.7636828 C60.0695959,20.5595282 61.0535384,19.8979443 62.206904,19.8979443 C63.5806712,19.8979443 64.0218534,20.8307188 64.0218534,22.1876195 L64.0218534,27.12363 L62.4782841,27.2932426 L62.4782841,27.7679683 L66.7187883,27.7679683 L66.7187883,27.2932426 L64.8697268,27.1063845 L64.8697268,21.9670284 Z M50.2659883,11.4338024 L50.2659883,11.9257737 L55.0998523,11.9257737 L55.0998523,11.4338024 L53.1325358,11.2643794 L53.1325358,3.42789881 L52.6574311,3.27534224 C51.9280022,4.03869364 50.9952277,4.39478531 49.9269527,4.3777293 L49.9269527,4.75087699 C50.7240371,4.90343356 51.6056435,4.86970056 52.2840938,4.53066489 L52.2840938,11.2643794 L50.2659883,11.4338024 Z M42.4634303,38.6745315 C42.7179439,36.859582 43.87112,35.6893499 45.5335129,35.6893499 C46.9072801,35.6893499 48.2982928,36.5882019 48.3490818,38.6745315 L42.4634303,38.6745315 Z M45.5501899,35.0108996 C43.1589367,35.0108996 41.5814448,36.842905 41.5814448,39.4888614 C41.5814448,42.1350073 43.1759927,43.9666337 45.702936,43.9666337 C47.5519974,43.9666337 48.620462,43.1018938 49.0443987,41.7957821 L48.5186944,41.608924 C48.0401785,42.702783 47.1871882,43.2881834 45.8050825,43.2881834 C43.6677744,43.2881834 42.4124518,41.8126486 42.4124518,39.5057279 L42.4124518,39.3361153 L49.1463557,39.3361153 C49.1632222,39.2174813 49.1632222,38.9459116 49.1632222,38.793355 C49.1632222,36.9274271 47.9928006,35.0108996 45.5501899,35.0108996 Z M46.1609847,27.4285537 C44.1764227,27.4285537 42.9042335,25.9024194 42.9042335,23.6296107 C42.9042335,21.3395565 44.1764227,19.8469658 46.1609847,19.8469658 C48.1622237,19.8469658 49.4346024,21.3566126 49.4346024,23.6296107 C49.4346024,25.9024194 48.1622237,27.4285537 46.1609847,27.4285537 Z M46.1609847,19.1685154 C43.6677744,19.1685154 42.0559811,20.9664088 42.0559811,23.6296107 C42.0559811,26.2755671 43.6677744,28.107383 46.1443077,28.107383 C48.637518,28.107383 50.2659883,26.2755671 50.2659883,23.6296107 C50.2659883,20.9664088 48.637518,19.1685154 46.1609847,19.1685154 Z M30.9631284,35.1126671 L30.4884026,34.9771666 C29.7593528,35.740139 28.8260098,36.0966097 27.7573557,36.0793641 L27.7573557,36.4527013 C28.5546296,36.6054474 29.4199381,36.5882019 30.0981989,36.2489767 L30.0981989,41.2867548 C29.3856365,42.4060084 28.1646154,43.2542608 26.8414477,43.2542608 C25.5188486,43.2542608 24.7721742,42.3722754 24.7721742,41.0322412 L24.7721742,35.1126671 L24.3141254,34.9771666 C23.6019421,35.740139 22.8725132,36.0966097 21.8207257,36.0793641 L21.8207257,36.4527013 C22.533288,36.6054474 23.3133164,36.5882019 23.9241112,36.2999553 L23.9241112,41.0832197 C23.9241112,42.6099225 24.6533506,43.9666337 26.7059472,43.9666337 C28.1473699,43.9666337 29.3901848,43.1629164 30.1152549,42.0840287 L30.1319319,43.7972106 L30.1831,43.8311331 L32.8290563,43.57643 L32.8290563,43.1183813 L30.9631284,43.1183813 L30.9631284,35.1126671 Z M40.5126013,4.59832042 L40.5126013,9.38158488 C40.5126013,10.9080982 41.2420302,12.2651884 43.2944372,12.2651884 C44.736239,12.2651884 45.9790539,11.4610921 46.704124,10.3822044 L46.720801,12.0955758 L46.7717795,12.1293088 L49.4177359,11.8749847 L49.4177359,11.4171254 L47.5519974,11.4171254 L47.5519974,3.4108428 L47.0768927,3.27534224 C46.3474638,4.03869364 45.4146893,4.39478531 44.3460353,4.3777293 L44.3460353,4.75087699 C45.1433092,4.90343356 46.0082386,4.88675657 46.686689,4.5475314 L46.686689,9.58511999 C45.9743161,10.7045631 44.7531055,11.552626 43.4301273,11.552626 C42.1071491,11.552626 41.3608537,10.6706405 41.3608537,9.33079586 L41.3608537,3.4108428 L40.902805,3.27534224 C40.1904321,4.03869364 39.4610032,4.39478531 38.4095947,4.3777293 L38.4095947,4.75087699 C39.1215886,4.90343356 39.901996,4.88675657 40.5126013,4.59832042 Z M21.5493455,4.5475314 L21.5493455,11.2643794 L19.5310505,11.4338024 L19.5310505,11.9257737 L24.3311815,11.9257737 L24.3311815,11.4508584 L22.3974085,11.2812459 L22.3974085,6.09091118 C23.0929148,4.92067909 24.3141254,4.03869364 25.6541596,4.03869364 C26.9941938,4.03869364 27.7404892,4.92067909 27.7404892,6.27757979 L27.7404892,11.2812459 L25.7727937,11.4508584 L25.7727937,11.9257737 L30.4033121,11.9257737 L30.4033121,11.4338024 L28.5887417,11.2643794 L28.5887417,6.19267874 C28.5887417,4.64910944 27.8422568,3.30926476 25.8237722,3.30926476 C24.38216,3.30926476 23.1177408,4.11999397 22.3807315,5.24284825 L22.3807315,3.4108428 L21.9056267,3.27534224 C21.2101203,4.03869364 20.2942124,4.39478531 19.1918253,4.3777293 L19.1918253,4.75087699 C20.0059657,4.90343356 20.8707057,4.88675657 21.5493455,4.5475314 Z M39.3933477,25.5292717 C38.969411,26.7336158 37.9176235,27.4285537 36.6117013,27.4285537 C34.6949843,27.4285537 33.5584852,25.9702644 33.5584852,23.6635332 C33.5584852,21.4075911 34.8304849,19.8469658 36.7811244,19.8469658 C37.9176235,19.8469658 38.9013765,20.4236486 39.3933477,21.3736686 L39.3933477,25.5292717 Z M36.6793568,19.1685154 C34.3047806,19.1685154 32.7102328,21.0173874 32.7102328,23.6972663 C32.7102328,26.3265456 34.1183015,28.107383 36.4758217,28.107383 C37.7648774,28.107383 38.8547567,27.5056847 39.4102142,26.4789127 L39.4272702,27.9377704 L39.4780593,27.971693 L42.1579381,27.7171793 L42.1579381,27.2593201 L40.2414107,27.2593201 L40.2414107,15.0468348 L39.7833619,14.9113342 C39.0429414,15.8630598 38.1382146,16.369813 37.086427,16.352757 L37.086427,16.7259047 C37.8956401,16.9038557 38.8333419,16.7281788 39.3933477,16.3379751 L39.3933477,20.4744376 C38.7825529,19.6434307 37.8329119,19.1685154 36.6793568,19.1685154 Z M33.2700491,11.7561611 L34.9661749,11.9087177 C36.9505474,12.0874268 37.5617213,12.6553921 37.5617213,13.4016875 C37.5617213,14.43604 36.5095547,15.2333139 34.3894921,15.2333139 C32.4896416,15.2333139 31.4043106,14.470152 31.4043106,13.4524765 C31.4043106,12.6891251 32.0484594,11.9598857 33.2700491,11.7561611 Z M31.8792258,6.48111489 C31.8792258,5.10715818 32.9135784,3.97065909 34.4577162,3.97065909 C35.9501174,3.97065909 36.9676035,5.10715818 36.9676035,6.5148479 C36.9676035,7.83782607 36.0009065,8.99138118 34.4065481,8.99138118 C32.9649359,8.99138118 31.8792258,7.85488209 31.8792258,6.48111489 Z M30.6239032,13.503455 C30.6239032,14.8093772 31.8621698,15.8948977 34.3724361,15.8948977 C37.0017155,15.8948977 38.3756722,14.7921317 38.3756722,13.3338424 C38.3756722,11.7222386 36.4932567,11.2954592 34.6438163,11.1455558 C33.2700491,11.0269217 31.9978599,10.9759432 31.9978599,10.2974929 C31.9978599,9.95826768 32.3370851,9.63590901 33.8467319,9.63590901 L34.4065481,9.63590901 C36.4418992,9.63590901 37.7478214,8.2450858 37.7478214,6.44719237 C37.7478214,5.63305195 37.4428977,4.86970056 36.9168144,4.31007378 C37.035259,2.76669399 38.3923492,3.52966636 38.3923492,2.73258196 C38.3923492,2.39316727 38.1890036,2.2237442 37.8495889,2.2237442 C37.0695605,2.2237442 36.4758217,3.0039621 36.3740542,3.85202503 C35.8654059,3.51261035 35.2375551,3.30926476 34.5083157,3.30926476 C32.4390421,3.30926476 31.0988184,4.70008797 31.0988184,6.44719237 C31.0988184,7.71938153 31.7433463,8.68607852 32.6763102,9.19491628 C31.7604023,9.27981733 31.268431,9.75473258 31.268431,10.3992604 C31.268431,10.8571196 31.5568672,11.2983019 32.3202186,11.552626 C31.3360865,11.8073291 30.6239032,12.6044135 30.6239032,13.503455 Z M18.564164,26.0547865 C17.9706147,26.7167493 16.8001931,27.4285537 15.5448704,27.4285537 C14.5440614,27.4285537 13.713244,26.9540174 13.713244,25.9871309 C13.713244,24.7827868 14.747786,23.6635332 18.564164,23.5954987 L18.564164,26.0547865 Z M12.881858,25.9871309 C12.881858,27.2593201 13.8658006,28.107383 15.4093699,28.107383 C16.8001931,28.107383 17.9277851,27.4205942 18.614953,26.7336158 C18.7631508,27.4753629 19.2934034,27.8530589 20.0226427,27.8530589 C20.8202957,27.8530589 21.3459999,27.4285537 21.515802,26.5469472 L21.1254088,26.3773346 C20.9895292,26.9030389 20.7352051,27.1914751 20.2773459,27.1914751 C19.6837966,27.1914751 19.4122269,26.8863619 19.4122269,25.8004623 L19.4122269,22.119964 C19.4122269,20.4236486 18.7167206,19.1685154 16.4607784,19.1685154 C15.1379897,19.1685154 14.3744488,19.5587191 13.8489341,20.0336344 C13.3908853,20.4577606 13.2550057,20.8479643 13.2550057,21.0852324 C13.2550057,21.3736686 13.4585408,21.5772037 13.7638435,21.5772037 C14.1711032,21.5772037 14.2220818,21.187 14.4593499,20.7460072 C14.747786,20.2371695 15.1887787,19.8469658 16.3929334,19.8469658 C17.7500236,19.8469658 18.564164,20.5762051 18.564164,22.0350629 L18.564164,22.9850829 C14.9340756,23.0188159 12.881858,24.0533579 12.881858,25.9871309 Z M52.6744871,1.59608287 C53.0815573,1.59608287 53.4205929,1.2737242 53.4205929,0.866653991 C53.4205929,0.459773293 53.0815573,0.137225111 52.6744871,0.137225111 C52.2672273,0.137225111 51.9448687,0.459773293 51.9448687,0.866653991 C51.9448687,1.2737242 52.2672273,1.59608287 52.6744871,1.59608287 Z M15.0872007,3.98752559 C16.4607784,3.98752559 17.8519806,4.88675657 17.9025801,6.97308615 L12.0169286,6.97308615 C12.2712527,5.15813671 13.4246183,3.98752559 15.0872007,3.98752559 Z M15.2564343,12.2651884 C17.1054957,12.2651884 18.1739603,11.4000694 18.5980865,10.0937682 L18.0725717,9.90728915 C17.5938663,11.0011482 16.740497,11.586738 15.3583913,11.586738 C13.2212727,11.586738 11.9659501,10.1110138 11.9659501,7.80409307 L11.9659501,7.63466999 L18.6998541,7.63466999 C18.7167206,7.51584643 18.7167206,7.24446629 18.7167206,7.09190971 C18.7167206,5.22579223 17.5461094,3.30926476 15.1040672,3.30926476 C12.7122455,3.30926476 11.1349432,5.1410807 11.1349432,7.78722657 C11.1349432,10.4331829 12.7293015,12.2651884 15.2564343,12.2651884 Z" id="Fill-1" fill="#FFFFFF" mask="url(#mask-2)"></path>
                </g>
                <g id="Group-6" transform="translate(0.000000, 0.241816)">
                    <mask id="mask-4" fill="white">
                        <use xlink:href="#path-3"></use>
                    </mask>
                    <g id="Clip-5"></g>
                    <polygon id="Fill-4" fill="#FFFFFF" mask="url(#mask-4)" points="-1.8951127e-05 43.4373477 0.899022516 43.4373477 0.899022516 21.7079854 0.899022516 0.00496519529 -1.8951127e-05 0.00496519529 -1.8951127e-05 21.7292107"></polygon>
                </g>
                <g id="Group-9" transform="translate(89.070297, 0.241816)">
                    <mask id="mask-6" fill="white">
                        <use xlink:href="#path-5"></use>
                    </mask>
                    <g id="Clip-8"></g>
                    <polygon id="Fill-7" fill="#FFFFFF" mask="url(#mask-6)" points="0.03043551 43.4373477 0.929476977 43.4373477 0.929476977 21.7079854 0.929476977 0.00496519529 0.03043551 0.00496519529 0.03043551 21.7292107"></polygon>
                </g>
            </g>
        </g>
    </g>
</svg>