<?xml version="1.0" encoding="UTF-8" standalone="no"?>
<svg width="50px" height="50px" viewBox="0 0 50 50" version="1.1" xmlns="http://www.w3.org/2000/svg" xmlns:xlink="http://www.w3.org/1999/xlink">
    <!-- Generator: Sketch 48.2 (47327) - http://www.bohemiancoding.com/sketch -->
    <title>Artboard</title>
    <desc>Created with Sketch.</desc>
    <defs></defs>
    <g id="Page-1" stroke="none" stroke-width="1" fill="none" fill-rule="evenodd">
        <g id="Artboard">
            <g id="Puffin-Logo-20mm.RGB" transform="translate(7.000000, 0.500000)">
                <path d="M18.1102281,48.1807544 C6.09233333,48.2039649 2.85231579,35.4304386 2.83082456,24.4845263 C2.82480702,20.8774386 2.21789474,0.737578947 17.9640877,0.706631579 C33.7111404,0.675684211 33.2830351,20.9204211 33.2916316,24.5266491 C33.3096842,35.4725614 30.1229649,48.1584035 18.1102281,48.1807544" id="Fill-1" fill="#F8DB38"></path>
                <path d="M19.5105965,35.196614 C17.7431579,35.574 17.2660526,37.4308421 17.1405439,37.8692632 C16.9557193,38.5157193 16.2671404,40.0699649 17.118193,40.4447719 C17.7345614,40.7147018 19.8424211,40.508386 20.5043509,40.4843158 C21.8135965,40.4378947 22.4669298,40.5462105 22.4514561,40.9304737 C22.4428596,41.1471053 21.9279298,41.0551228 21.8187544,41.3474035 C21.7310702,41.5872456 22.3242281,41.8872632 22.1832456,42.1632105 C21.9769298,42.5784211 21.364,42.4752632 21.1172807,42.5741228 C20.4768421,42.8268596 21.2711579,43.6564211 20.3057719,43.6564211 C19.3782105,43.6564211 17.0167544,42.2612105 16.2104035,41.9190702 C15.5708246,41.6457018 14.8057368,41.3499825 15.0206491,40.5307368 C15.2372807,39.7132105 15.5364386,38.9188947 15.6052105,38.0678421 C15.6860175,37.0379825 15.6421754,36.4740526 14.9544561,36.2866491 L15.2914386,35.4037895 L19.2784912,34.6507368" id="Fill-2" fill="#1A1919"></path>
                <path d="M21.6829298,34.6266667 C21.332193,34.853614 20.7192632,35.7012281 20.4355789,36.2625789 C20.3410175,36.4474035 20.1983158,36.7250702 20.3427368,36.9193509 C20.513807,37.1471579 20.776,37.1858421 21.0175614,37.225386 C21.4155789,37.2881404 23.4744386,37.2322632 23.961,37.2322632 C24.3151754,37.2322632 25.2100702,37.1858421 25.2100702,37.5795614 C25.2100702,37.8778596 24.794,37.6724035 24.6263684,38.0076667 C24.4879649,38.2844737 25.301193,38.5088421 25.1008947,38.8939649 C24.9401404,39.1982807 24.0684561,38.9249123 23.7263158,39.2627544 C23.4005088,39.5902807 23.992807,40.2831579 23.1417544,40.2092281 C22.5038947,40.1524912 22.0018596,39.8679474 21.4877895,39.577386 C20.8267193,39.2051579 19.7203509,38.7658772 19.0403684,38.430614 C18.4300175,38.1305965 18.6793158,37.4815614 18.830614,36.9305263 C19.208,35.5525088 19.2303509,35.6049474 19.4349474,35.1201053" id="Fill-3" fill="#1A1919"></path>
                <path d="M19.5105965,35.196614 C17.7431579,35.574 17.2660526,37.4308421 17.1405439,37.8692632 C16.9557193,38.5157193 16.2671404,40.0699649 17.118193,40.4447719 C17.7345614,40.7147018 19.8424211,40.508386 20.5043509,40.4843158 C21.8135965,40.4378947 22.4669298,40.5462105 22.4514561,40.9304737 C22.4428596,41.1471053 21.9279298,41.0551228 21.8187544,41.3474035 C21.7310702,41.5872456 22.3242281,41.8872632 22.1832456,42.1632105 C21.9769298,42.5784211 21.364,42.4752632 21.1172807,42.5741228 C20.4768421,42.8268596 21.2711579,43.6564211 20.3057719,43.6564211 C19.3782105,43.6564211 17.0167544,42.2612105 16.2104035,41.9190702 C15.5708246,41.6457018 14.8057368,41.3499825 15.0206491,40.5307368 C15.2372807,39.7132105 15.5364386,38.9188947 15.6052105,38.0678421 C15.6860175,37.0379825 15.6421754,36.4740526 14.9544561,36.2866491 L15.2914386,35.4037895 L19.2784912,34.6507368" id="Fill-4" fill="#1A1919"></path>
                <path d="M21.4860702,34.0644561 C21.1920702,34.4538772 20.6599474,35.5284386 20.4355789,36.2625789 C20.3728246,36.4602982 20.2722456,36.8007193 20.4166667,36.9924211 C20.5894561,37.2202281 20.776,37.1858421 21.0175614,37.225386 C21.4155789,37.2881404 23.4744386,37.2322632 23.961,37.2322632 C24.3151754,37.2322632 25.2100702,37.1858421 25.2100702,37.5795614 C25.2100702,37.8778596 24.794,37.6724035 24.6263684,38.0076667 C24.4879649,38.2844737 25.301193,38.5088421 25.1008947,38.8939649 C24.9401404,39.1982807 24.0684561,38.9249123 23.7263158,39.2627544 C23.4005088,39.5902807 23.992807,40.2831579 23.1417544,40.2092281 C22.5038947,40.1524912 22.0018596,39.8679474 21.4877895,39.577386 C20.8267193,39.2051579 19.7203509,38.7658772 19.0403684,38.430614 C18.4300175,38.1305965 18.6793158,37.4815614 18.830614,36.9305263 C19.208,35.5525088 19.0988246,35.7338947 19.3025614,35.2499123" id="Fill-5" fill="#1A1919"></path>
                <path d="M20.3264035,35.4923333 C18.7850526,34.4676316 17.8471754,36.4112982 16.498386,36.4181754 C16.0874737,36.421614 15.6696842,36.3941053 15.2475965,36.3322105 C10.2427193,35.5997895 7.23136842,33.2030877 6.22815789,31.9763684 C5.90063158,31.5757719 5.586,30.512386 6.1722807,30.1659474 C6.62789474,29.8960175 7.12305263,30.3224035 8.0394386,30.4178246 C8.94722807,30.512386 9.9977193,30.2390175 10.9708421,28.8077018 C12.0101579,27.2740877 12.4038772,22.9681053 14.6673333,19.6326667 C15.5347193,18.3552281 16.4588421,16.5198772 15.3799825,14.9776667 C13.8291754,12.7520351 13.4466316,11.4556842 13.4466316,9.91261404 C13.4466316,7.41619298 16.0591053,4.43664912 20.7252807,5.10803509 C26.0963684,5.88257895 28.6435088,10.846193 28.5549649,12.2732105 C28.5111228,12.950614 24.4432632,14.423193 23.4099649,14.7103158 C22.3775263,14.9982982 22.7471754,16.0419123 23.8887895,16.7932456 C26.8554386,18.7489474 27.9248421,21.0029474 27.7855789,24.3770702 C27.5964561,28.7887895 24.2412456,33.3088246 20.3264035,35.4923333" id="Fill-6" fill="#1A1919"></path>
                <path d="M24.1759123,13.5300175 C24.6143333,13.3709825 26.5906667,12.6015965 26.8468421,11.8287719 C27.1038772,11.0559474 25.6820175,8.98333333 25.0123509,8.31710526 C24.4544386,7.75661404 24.255,7.89415789 24.5068772,8.59735088 C24.5919825,8.82859649 25.0742456,10.1954386 24.8275263,11.3869123 C24.7200702,11.9027018 24.5266491,12.4864035 23.9799123,13.2514912 C23.684193,13.656386 23.7392105,13.6890526 24.1759123,13.5300175" id="Fill-7" fill="#FFFFFE"></path>
                <path d="M23.1486316,7.57522807 C22.8408772,7.03622807 21.6846491,5.99777193 20.695193,5.99777193 C18.5649825,5.99777193 14.3492632,9.39596491 14.4833684,10.3622105 C14.6570175,11.5975263 16.7193158,11.0241404 18.7394912,12.2414035 C20.4063509,13.247193 20.7459123,14.6879649 21.7482632,14.4180351 C22.295,14.2701754 23.5818947,12.4047368 23.961,11.0121053 C24.1174561,10.4455965 23.8750351,8.85438596 23.1486316,7.57522807" id="Fill-8" fill="#FFFFFE"></path>
                <path d="M14.3492632,33.4902105 C11.9921053,34.5742281 10.7473333,35.049614 9.18621053,35.314386 C8.19159649,35.4845965 6.74824561,35.6049474 6.10866667,35.1527719 C5.01347368,34.3730702 7.22878947,33.6690175 8.06350877,32.6219649" id="Fill-9" fill="#1A1919"></path>
                <path d="M22.7050526,17.4276667 C24.5790877,18.4317368 27.2852632,20.7802982 26.2897895,25.641614 C25.3544912,30.2020526 21.0347544,35.2395965 15.6387368,34.9988947 C13.2248421,34.8914386 12.4150526,34.2810877 14.9338246,33.32 C16.3960877,32.7620877 20.7209825,30.7384737 22.6294035,25.7851754 C24.7819649,20.2017544 21.5952456,18.4222807 21.4362105,18.2632456 C20.4725439,17.3133333 20.7390351,16.3763158 22.7050526,17.4276667" id="Fill-10" fill="#FFFFFE"></path>
                <path d="M21.7852281,7.4952807 C21.7697544,7.48496491 21.7534211,7.47808772 21.7362281,7.47207018 C21.3382105,7.27349123 20.8619649,7.34226316 20.6161053,7.53998246 C20.3882982,7.71964912 20.4304211,7.87008772 20.6066491,7.78842105 C20.7510702,7.71964912 21.1705789,7.64314035 21.1886316,7.72222807 C21.1989474,7.76091228 21.0811754,7.86407018 21.0510877,8.14345614 C21.0295965,8.35235088 21.1104035,8.56038596 21.0785965,8.58015789 C21.0124035,8.6205614 19.8759474,7.7927193 18.605386,8.12626316 C18.063807,8.26724561 18.0560702,8.65064912 18.556386,8.56984211 C19.1632982,8.47270175 19.8604737,8.4314386 20.4201053,8.71254386 C20.562807,8.78389474 21.0785965,9.02545614 21.1903509,9.07359649 C21.3622807,9.14580702 21.5900877,9.2085614 21.7714737,9.13291228 C21.986386,9.04178947 22.1660526,8.76498246 22.1901228,8.55694737 C22.2399825,8.09703509 22.1411228,7.71449123 21.7852281,7.4952807" id="Fill-11" fill="#1A1919"></path>
                <path d="M27.1683509,11.647386 C25.5255614,11.5854912 23.7632807,11.3086842 22.819386,10.9768596 C22.0388246,10.7052105 21.6975439,10.566807 21.5849298,10.7413158 C21.4439474,10.961386 21.6588596,11.2459298 22.2735088,11.5107018 C23.1314386,11.8820702 25.8668421,12.1975614 26.6774912,12.1133158 C27.2689298,12.0514211 27.2921404,11.647386 27.1683509,11.647386" id="Fill-12" fill="#1A1919"></path>
                <path d="M18.0182456,0.134964912 C1.44249123,0.168491228 0.738438596,20.8464912 0.746175439,24.6444211 C0.768526316,36.1611404 5.46221053,48.8985614 18.1119474,48.8736316 C30.7522281,48.8495614 35.3969123,36.0167193 35.3745614,24.4957018 C35.3702632,20.6977719 34.594,0.101438596 18.0182456,0.134964912 Z M18.1102281,48.1807544 C6.09233333,48.2039649 2.85231579,35.4304386 2.83082456,24.4845263 C2.82480702,20.8774386 2.21789474,0.737578947 17.9640877,0.706631579 C33.7111404,0.675684211 33.2830351,20.9204211 33.2916316,24.5266491 C33.3096842,35.4725614 30.1229649,48.1584035 18.1102281,48.1807544 Z" id="Fill-13" fill="#000000"></path>
            </g>
        </g>
    </g>
</svg>