<?xml version="1.0" encoding="UTF-8" standalone="no"?>
<svg width="30px" height="30px" viewBox="0 0 30 30" version="1.1" xmlns="http://www.w3.org/2000/svg" xmlns:xlink="http://www.w3.org/1999/xlink">
    <!-- Generator: Sketch 48.2 (47327) - http://www.bohemiancoding.com/sketch -->
    <title>Artboard</title>
    <desc>Created with Sketch.</desc>
    <defs></defs>
    <g id="Page-1" stroke="none" stroke-width="1" fill="none" fill-rule="evenodd">
        <g id="Artboard" fill="#000000">
            <path d="M20.1715104,19.1949711 L24.3028825,23.3263433 C24.6841131,23.7075739 24.6844397,24.3253443 24.2976303,24.7121537 C23.9134989,25.0962851 23.2882728,25.093859 22.9118198,24.717406 L18.6603663,20.4659525 C17.3081923,21.3587056 15.68374,21.8790889 13.936518,21.8790889 C9.22840517,21.8790889 5.41172562,18.1005761 5.41172562,13.4395444 C5.41172562,8.77851275 9.22840517,5 13.936518,5 C18.6446308,5 22.4613104,8.77851275 22.4613104,13.4395444 C22.4613104,15.6639346 21.5920627,17.6873313 20.1715104,19.1949711 Z M13.936518,19.9315017 C17.5581432,19.9315017 20.4940506,17.0249534 20.4940506,13.4395444 C20.4940506,9.85413545 17.5581432,6.94758718 13.936518,6.94758718 C10.3148927,6.94758718 7.3789854,9.85413545 7.3789854,13.4395444 C7.3789854,17.0249534 10.3148927,19.9315017 13.936518,19.9315017 Z" id="Rectangle-7-Copy-23"></path>
        </g>
    </g>
</svg>