<?xml version="1.0" encoding="UTF-8" standalone="no"?>
<svg width="26px" height="26px" viewBox="0 0 26 26" version="1.1" xmlns="http://www.w3.org/2000/svg" xmlns:xlink="http://www.w3.org/1999/xlink">
    <!-- Generator: Sketch 48.2 (47327) - http://www.bohemiancoding.com/sketch -->
    <title>Artboard</title>
    <desc>Created with Sketch.</desc>
    <defs></defs>
    <g id="Page-1" stroke="none" stroke-width="1" fill="none" fill-rule="evenodd">
        <g id="Artboard" fill="#FFFFFF">
            <path d="M19.5,9.13892354 C19.0285154,9.34918018 18.6311709,9.35613081 18.2100784,9.14819105 C18.7533862,8.82266976 18.7782926,8.5938781 18.974648,7.9787471 C18.4660934,8.28052041 17.9025129,8.50004456 17.3030209,8.61820531 C16.8234272,8.10733381 16.1393691,7.78702549 15.3823294,7.78702549 C13.9284887,7.78702549 12.7503564,8.96631616 12.7503564,10.4189984 C12.7503564,10.6252005 12.7735252,10.8261896 12.8181251,11.0190697 C10.6309927,10.9095972 8.69118695,9.86178934 7.3931563,8.26893602 C7.16668152,8.65759223 7.03693637,9.10996257 7.03693637,9.59245233 C7.03693637,10.5058813 7.50204955,11.3109963 8.20753876,11.7830601 C7.77602032,11.7691588 7.37056674,11.650998 7.01608448,11.4540634 C7.01550526,11.4650686 7.01550526,11.4754946 7.01550526,11.487079 C7.01550526,12.76252 7.92256282,13.8259669 9.12733916,14.0680806 C8.74157904,14.1729193 8.33496703,14.1891374 7.93820175,14.1138389 C8.27356977,15.1587507 9.24549991,15.9198449 10.3969881,15.9412761 C9.27040634,16.8240064 7.87390839,17.1918107 6.5,17.0307877 C7.66538941,17.7774015 9.0479861,18.2129745 10.5348423,18.2129745 C15.3759579,18.2129745 18.0229906,14.2024595 18.0229906,10.724247 C18.0229906,10.6095616 18.0212529,10.4966138 18.0160399,10.383666 C18.5298075,10.0129656 19.1472554,9.66717163 19.5,9.13892354 L19.5,9.13892354 Z" id="Shape"></path>
        </g>
    </g>
</svg>