<?xml version="1.0" encoding="utf-8"?>
<!-- Generator: Adobe Illustrator 21.0.0, SVG Export Plug-In . SVG Version: 6.00 Build 0)  -->
<svg version="1.1" id="Layer_1" xmlns="http://www.w3.org/2000/svg" xmlns:xlink="http://www.w3.org/1999/xlink" x="0px" y="0px"
	 viewBox="0 0 26 26" style="enable-background:new 0 0 26 26;" xml:space="preserve">
<title>whatsapp-icon_black</title>
<desc>Created with Sketch.</desc>
<g id="whatsapp-icon_black">
	<path id="whatsapp_s" d="M7.1,16.6C6.4,15.5,6,14.2,6,12.8c0-3.9,3.2-7,7.1-7s7.1,3.1,7.1,7s-3.2,7-7.1,7c-1.3,0-2.5-0.3-3.5-0.9
		c-0.1,0-3.7,1.3-3.7,1.3C5.7,20.1,7.2,16.8,7.1,16.6z M8.5,16.1c0,0.1-0.8,2.2-0.7,2.2c0,0,2.2-0.9,2.3-0.8
		c0.9,0.6,1.9,0.9,3.1,0.9c3.1,0,5.7-2.5,5.7-5.6s-2.5-5.6-5.7-5.6s-5.7,2.5-5.7,5.6C7.4,14.1,7.8,15.2,8.5,16.1z M11.4,10.1
		c0.4,0.6,0.6,1.2,0.6,1.5s-0.5,0.8-0.5,0.8s0.1,0.7,1.1,1.5c1,0.8,1.4,0.7,1.4,0.7s0.5-0.9,0.9-0.8c0.4,0.1,1,0.4,1.5,0.7
		s-0.1,1.6-0.9,1.7c-0.8,0.2-2.2,0-3.6-1.2s-1.8-2-2-2.8C9.4,10.1,11,9.5,11.4,10.1z"/>
</g>
</svg>
