<?xml version="1.0" encoding="UTF-8" standalone="no"?>
<svg width="26px" height="26px" viewBox="0 0 26 26" version="1.1" xmlns="http://www.w3.org/2000/svg" xmlns:xlink="http://www.w3.org/1999/xlink">
    <!-- Generator: Sketch 48.2 (47327) - http://www.bohemiancoding.com/sketch -->
    <title>Artboard</title>
    <desc>Created with Sketch.</desc>
    <defs></defs>
    <g id="Page-1" stroke="none" stroke-width="1" fill="none" fill-rule="evenodd">
        <g id="Artboard" fill="#000000">
            <path d="M17.7423529,8 L8.25764706,8 C6.98058824,8 5.94117647,9.04 5.94117647,10.3170588 L5.94117647,15.6823529 C5.94117647,16.96 6.98058824,18 8.25764706,18 L17.7429412,18 C19.0194118,18 20.0588235,16.96 20.0588235,15.6823529 L20.0588235,10.3170588 C20.0588235,9.04 19.0194118,8 17.7423529,8 L17.7423529,8 Z M15.6694118,13.0182353 L11.6876471,15.5658824 C11.6394118,15.5964706 11.5841176,15.6123529 11.5294118,15.6123529 C11.4805882,15.6123529 11.4323529,15.6 11.3882353,15.5758824 C11.2941176,15.5247059 11.2352941,15.4252941 11.2352941,15.3182353 L11.2352941,10.2229412 C11.2352941,10.1147059 11.2941176,10.0158824 11.3882353,9.96411765 C11.4829412,9.91294118 11.5976471,9.91705882 11.6882353,9.97470588 L15.67,12.5229412 C15.7547059,12.5770588 15.8058824,12.67 15.8058824,12.7705882 C15.8052941,12.8711765 15.7541176,12.9641176 15.6694118,13.0182353 L15.6694118,13.0182353 Z" id="Shape-Copy-7"></path>
        </g>
    </g>
</svg>